<svg width="18" height="17" viewBox="0 0 18 17" fill="none" xmlns="http://www.w3.org/2000/svg">
<path fill-rule="evenodd" clip-rule="evenodd" d="M4.12741 2.7H1.80002C0.807316 2.7 1.73633e-05 3.50729 1.73633e-05 4.49999V14.4C1.73633e-05 15.3927 0.807316 16.2 1.80002 16.2H16.2C17.1927 16.2 18 15.3927 18 14.4V4.49999C18 3.50729 17.1927 2.7 16.2 2.7H13.8726L11.4363 0.2637C11.3529 0.179962 11.2537 0.113553 11.1445 0.0682967C11.0353 0.0230401 10.9182 -0.000170504 10.8 0H7.20001C7.0818 -0.000170504 6.96473 0.0230401 6.85552 0.0682967C6.74632 0.113553 6.64715 0.179962 6.56371 0.2637L4.12741 2.7ZM13.5 8.99998C13.5 11.439 11.439 13.5 9.00001 13.5C6.56101 13.5 4.50001 11.439 4.50001 8.99998C4.50001 6.56099 6.56101 4.49999 9.00001 4.49999C11.439 4.49999 13.5 6.56099 13.5 8.99998ZM11.7002 8.99998C11.7002 7.53658 10.4636 6.29998 9.00019 6.29998C7.5368 6.29998 6.3002 7.53658 6.3002 8.99998C6.3002 10.4634 7.5368 11.7 9.00019 11.7C10.4636 11.7 11.7002 10.4634 11.7002 8.99998Z" fill="#808080"/>
</svg>
