<svg width="19" height="18" viewBox="0 0 19 18" fill="none" xmlns="http://www.w3.org/2000/svg">
<path d="M14.2627 8.30979C14.6 8.03167 16.5484 6.82647 17.6153 5.81125C18.4482 5.01791 18.7704 2.94643 17.4892 1.93881C15.8235 0.630261 14.2247 2.00416 14.2247 2.00416C14.2247 2.00416 14.0848 1.22754 13.1122 0.771602C11.8872 0.197119 10.3355 -0.0171723 8.90841 0.00106522C7.52539 0.017783 6.2518 0.184961 5.12108 0.739686C4.10889 1.23666 4.0481 1.94488 4.0481 1.94488C4.0481 1.94488 2.7198 0.675855 1.0921 1.70628C-0.534087 2.73822 -0.0675094 4.80514 0.715186 5.67295C1.73497 6.80367 2.95992 7.37968 3.51617 7.7961C4.0709 8.21253 4.60283 8.60919 4.60283 8.96634C4.60283 9.3235 4.44477 9.40253 4.38397 9.38277C4.3247 9.36301 4.21984 9.01498 3.94779 9.16392C3.57696 9.36909 3.68943 10.1959 4.463 10.2749C5.21226 10.3524 5.35512 9.56059 5.35512 9.56059L5.47367 8.78701L6.70318 9.63961L8.05124 10.7506L8.01173 11.702C8.01173 11.702 7.95246 12.436 7.5953 13.0713C7.23815 13.7066 6.66367 14.3403 6.66367 14.3403L6.64543 14.9148L11.644 14.7963L11.486 14.2416C11.486 14.2416 10.8416 13.5333 10.454 12.7734C10.1774 12.2293 10.1334 11.6807 10.1334 11.6807L10.1212 10.3159L12.7155 8.72622C12.7155 8.72622 12.9936 8.94507 12.9541 9.0241C12.9146 9.10313 12.9055 9.91318 13.5286 10.2141C14.1441 10.512 14.6396 10.1351 14.5803 9.61834C14.521 9.10313 14.2034 9.28094 14.1046 9.35997C14.0058 9.439 13.787 9.45876 13.7277 9.16088C13.6669 8.86604 13.9253 8.58792 14.2627 8.30979V8.30979ZM1.4918 5.50425L0.897561 3.69569L1.61642 2.75494L2.42192 2.51937C2.42192 2.51937 3.45082 3.28687 3.48729 3.34918C3.52377 3.41149 4.14385 4.6866 4.14385 4.6866L4.9615 7.64716L1.4918 5.50425V5.50425ZM13.173 7.88273C13.1851 7.82042 13.9405 4.71091 13.9405 4.71091C13.9405 4.67444 14.4724 4.42671 14.4724 4.37656C14.4724 4.32641 15.439 2.75342 15.439 2.75342L17.05 2.81573L17.3843 4.41303L16.5788 5.7383C16.5803 5.73982 13.1608 7.94352 13.173 7.88273Z" fill="#FEC417"/>
<path d="M17.7283 3.94646C17.6098 2.53001 16.2086 2.1911 15.6326 2.39627C15.0565 2.60144 14.6827 2.98595 14.555 3.53308C14.4517 3.97534 14.3483 4.27018 14.2298 4.31577C14.0991 4.3644 13.979 4.34465 13.979 4.34465C13.979 4.34465 13.9577 3.38718 13.9638 3.00115C13.979 2.20477 14.2222 2.00112 14.2222 2.00112C14.2222 2.00112 14.1705 1.73212 14.0672 1.58318C13.9638 1.43576 13.7723 1.24426 13.7723 1.24426C13.7723 1.24426 13.8164 1.62725 13.6249 1.71692C13.4334 1.80659 13.2267 1.67285 13.2267 1.67285L13.4182 2.46922C13.4182 2.46922 13.1082 6.43893 13.0793 6.52708C13.0504 6.61522 11.8847 8.63655 11.8847 8.63655C11.8847 8.63655 11.2054 9.27183 10.8817 9.41925C10.5564 9.56667 10.2768 9.95118 9.02296 9.96485C7.76912 9.98005 6.69159 8.99067 6.69159 8.99067L5.61405 7.9572L4.81768 5.61064L4.69914 3.22L4.74929 2.35067L4.78424 1.98744L4.72801 1.80355C4.72801 1.80355 4.62467 1.90689 4.43317 1.86282C4.24168 1.81875 4.16721 1.56798 4.16721 1.56798C4.16721 1.56798 4.09274 1.68652 4.07906 1.7458C4.06386 1.80507 4.04866 1.94185 4.04866 1.94185C4.04866 1.94185 4.25535 2.15918 4.29943 2.46922C4.3435 2.77926 4.28423 4.06349 4.06386 4.03309C3.84197 4.00421 3.91492 2.92668 3.07447 2.51329C2.34649 2.15462 1.25984 2.26253 0.816056 3.16225C0.373795 4.06197 0.697512 5.1243 2.08509 6.11369C3.47266 7.10308 4.9499 7.93441 5.18395 8.72774C5.46359 9.67153 4.82984 10.2323 4.82984 10.2323C4.82984 10.2323 5.29034 10.1685 5.51679 9.67457C5.58974 9.515 5.61709 9.28247 5.62773 9.14416C6.15206 9.82807 6.84965 10.4071 7.77368 10.6868C8.12324 10.8068 8.51686 10.8676 9.06399 10.8676C9.14302 10.8676 9.22053 10.8646 9.29804 10.8615C9.93787 10.8387 10.485 10.7187 11.0154 10.4557C11.7312 10.1244 12.286 9.61834 12.7145 9.04386C12.7024 9.18064 12.786 9.52107 12.9456 9.79008C13.2252 10.2627 13.6979 10.2916 13.6979 10.2916C13.6979 10.2916 13.0489 9.90862 13.1811 8.9937C13.3133 8.07879 13.9182 7.75355 14.8331 7.16387C15.7511 6.57267 17.8454 5.36291 17.7283 3.94646V3.94646ZM2.73556 5.95411C2.32369 5.66383 1.60179 5.27628 1.30391 4.68508C0.907244 3.89631 1.22944 2.9434 1.98326 2.82637C3.54865 2.58016 3.57753 4.52398 3.68087 4.75955C3.78422 4.99512 4.07906 5.01032 4.07906 5.01032C4.07906 5.01032 4.0897 5.14102 4.13225 5.39331C4.13377 5.40091 4.13529 5.40699 4.13529 5.41458L4.13985 5.43738C4.16873 5.60912 4.20976 5.82341 4.26751 6.0681L4.27207 6.08633C4.30399 6.22464 4.33742 6.35534 4.37238 6.4754C4.44229 6.72769 4.5274 6.99973 4.63226 7.27937C4.48028 7.17603 3.60944 6.57267 2.73556 5.95411V5.95411ZM16.9168 4.86138C16.59 5.39027 15.9289 5.78389 15.4411 6.11521C14.8119 6.54227 13.8757 7.18363 13.6112 7.36296C13.672 7.20186 13.7252 7.04229 13.7738 6.88575C13.8529 6.67905 13.9365 6.42677 13.9942 6.15472C14.1462 5.44042 14.172 4.81578 14.172 4.81578C14.172 4.81578 14.4821 4.90393 14.6736 4.69724C14.8651 4.49055 14.9365 3.84919 15.1158 3.54675C15.3955 3.0741 15.9563 2.58776 16.7982 3.17744C17.2846 3.5194 17.3028 4.23522 16.9168 4.86138V4.86138ZM8.70076 11.3433L9.55944 11.3327C9.55944 11.3327 9.58224 12.2704 9.7175 12.9695C9.85277 13.6701 10.0336 14.4483 10.0336 14.4483C10.0336 14.4483 8.28434 15.0349 8.29497 14.4027C8.30561 13.7704 8.5655 12.5394 8.5655 12.5394C8.5655 12.5394 8.72356 11.0728 8.70076 11.3433V11.3433Z" fill="#FFA828"/>
<path d="M7.25972 1.59836C7.25972 1.59836 8.21567 1.49045 9.10475 1.50413C9.99383 1.51781 10.9088 1.69258 10.9088 1.69258C10.9088 1.69258 10.8556 4.66834 10.6929 6.3386C10.5318 8.00886 9.89961 9.25965 9.73091 9.61376C9.56829 9.95724 9.44975 10.1411 9.44975 10.1411L8.59258 10.0408L7.11078 7.06506L7.25972 1.59836V1.59836Z" fill="#FFA828"/>
<path d="M6.11495 2.04367C6.11495 2.04367 6.38395 1.90841 6.77454 1.76099C7.12865 1.62725 7.44781 1.58621 7.44781 1.58621C7.44781 1.58621 7.45693 3.55891 7.48884 4.96624C7.5162 6.16536 7.95998 8.13046 8.17579 8.65631C8.3916 9.18215 8.78067 9.98461 8.78067 9.98461C8.78067 9.98461 7.99798 9.87214 7.5162 9.26118C7.26239 8.93899 6.07543 6.44652 6.0344 4.80362C5.99336 3.16072 6.15446 2.00264 6.11495 2.04367V2.04367Z" fill="#FFEFAB"/>
<path d="M5.66975 2.27165C5.6424 2.3522 5.4281 4.04981 5.76398 5.62432C6.09985 7.19883 6.59683 8.27636 6.9251 8.70343C7.21691 9.08186 7.40688 9.26119 7.51479 9.26119C7.62269 9.26119 7.071 7.95569 6.81416 6.93134C6.55883 5.90852 6.42357 4.68205 6.39622 4.07717C6.36886 3.47077 6.34302 1.90842 6.34302 1.90842C6.34302 1.90842 6.04666 2.04368 5.97979 2.08319C5.91292 2.12423 5.66975 2.27165 5.66975 2.27165V2.27165Z" fill="#FFFCFD"/>
<path d="M7.60883 14.3373C7.60883 14.3373 8.18787 13.395 8.30945 12.6807C8.43104 11.9664 8.49791 11.3342 8.49791 11.3342L8.85658 11.3494C8.85658 11.3494 8.82162 12.3843 8.78059 13.085C8.73955 13.7856 8.61949 14.4725 8.61949 14.4725L7.60883 14.3373V14.3373Z" fill="#FFEFAB"/>
<path d="M8.05388 10.7506C8.05388 10.7506 8.32289 10.4876 9.06303 10.4876C9.80317 10.4876 10.1208 10.7719 10.1208 10.7719L10.1406 11.6852C10.1406 11.6852 9.64815 11.5317 9.04935 11.5242C8.55086 11.5181 8.01437 11.7035 8.01437 11.7035L8.05388 10.7506ZM4.82128 1.67891C4.9459 1.56341 6.14046 0.666725 8.9688 0.642408C12.0114 0.615052 13.1528 1.49653 13.2242 1.54517C13.3048 1.59836 13.399 1.84153 13.3595 1.94943C13.3185 2.05734 13.2379 2.09685 13.0099 2.00263C12.7804 1.9084 11.6497 1.08315 8.92929 1.16826C6.31676 1.24881 5.20882 2.04366 5.0918 2.11053C4.99757 2.16372 4.8228 2.1774 4.74225 2.0695C4.66018 1.96311 4.74073 1.7549 4.82128 1.67891ZM13.3595 2.31266C13.0099 2.34002 13.2516 5.15468 12.5114 6.91765C11.7181 8.80371 10.7059 9.34172 10.747 9.44963C10.788 9.55753 11.7789 9.25813 12.4035 8.37209C12.9826 7.5514 13.3321 6.82342 13.4948 5.85379C13.6543 4.88416 13.7486 2.28227 13.3595 2.31266ZM4.74681 2.63486C4.65866 2.6303 4.74833 4.03459 4.60546 4.65163C4.55075 4.88872 4.41701 4.93735 4.40333 4.99055C4.38965 5.04374 4.69665 6.85078 5.21186 7.64411C5.71036 8.41161 6.69366 9.36756 6.85476 9.20646C7.01586 9.04536 6.14046 8.50583 5.54926 7.33407C5.20882 6.66232 4.86231 5.65014 4.84863 4.49205C4.83951 3.72608 4.93526 2.6455 4.74681 2.63486Z" fill="#D1701C"/>
<path d="M12.6899 16.4194L12.6884 14.2476H5.71705C5.73833 14.2476 5.72161 16.0136 5.71857 16.427H4.72766V18H13.5805V16.427L12.6899 16.4194Z" fill="#865C50"/>
<path d="M7.95061 15.389C7.77887 15.3814 7.5813 15.4164 7.5737 15.6292C7.5661 15.8419 7.5661 16.4574 7.5661 16.5745C7.5661 16.6915 7.66185 16.7933 7.90198 16.8009C8.1421 16.8085 10.396 16.8009 10.554 16.8009C10.7121 16.8009 10.7941 16.6641 10.8002 16.5274C10.8078 16.3906 10.7926 15.8146 10.7926 15.658C10.7926 15.3981 10.5601 15.3981 10.402 15.3981C10.2318 15.3951 7.95061 15.389 7.95061 15.389V15.389Z" fill="#FCC219"/>
</svg>
