<svg width="27" height="27" viewBox="0 0 27 27" fill="none" xmlns="http://www.w3.org/2000/svg">
<g clip-path="url(#clip0_0_154)">
<path d="M2.45957 2.03101L1.03057 3.33984L3.28097 5.40099V22.9207L7.78176 18.7984H17.9085L24.3559 24.7036L25.7849 23.3948L2.45957 2.03101ZM10.0322 14.6761H7.78176V12.615H10.0322V14.6761ZM7.78176 11.5844V9.52327L10.0322 11.5844H7.78176ZM23.5345 2.30927H5.62138L12.2825 8.41026V6.43156H21.2841V8.4927H12.3726L13.4978 9.52327H21.2841V11.5844H15.7482L23.6133 18.7984C24.8172 18.7469 25.7849 17.8503 25.7849 16.7373V4.37041C25.7849 3.82376 25.5478 3.2995 25.1258 2.91296C24.7038 2.52642 24.1314 2.30927 23.5345 2.30927Z" fill="white"/>
</g>
<defs>
<clipPath id="clip0_0_154">
<rect width="26.199" height="26.199" fill="white" transform="scale(1.03057)"/>
</clipPath>
</defs>
</svg>
