<svg width="12" height="12" viewBox="0 0 12 12" fill="none" xmlns="http://www.w3.org/2000/svg">
<circle cx="6" cy="6" r="5.5" fill="#808080" stroke="#E8ECF5"/>
<path d="M8.11658 5.67651C8.17369 5.67651 8.22887 5.69775 8.27192 5.73629C8.31496 5.77483 8.34295 5.82807 8.35072 5.88616L8.35293 5.91916V6.08092C8.35298 6.63209 8.15003 7.1629 7.7848 7.56685C7.41957 7.97081 6.91907 8.21804 6.3837 8.25895L6.38339 8.99272C6.38337 9.0542 6.36062 9.11338 6.31974 9.1583C6.27886 9.20323 6.2229 9.23054 6.16315 9.23473C6.10341 9.23892 6.04435 9.21968 5.9979 9.18088C5.95144 9.14208 5.92107 9.08663 5.91291 9.02572L5.9107 8.99272V8.25895C5.38807 8.2191 4.89816 7.98257 4.53493 7.59472C4.17169 7.20687 3.9607 6.695 3.94242 6.15728L3.94116 6.08092V5.91916C3.94118 5.85768 3.96393 5.7985 4.00481 5.75358C4.04569 5.70865 4.10166 5.68134 4.1614 5.67715C4.22114 5.67296 4.2802 5.6922 4.32666 5.731C4.37311 5.7698 4.40348 5.82525 4.41165 5.88616L4.41385 5.91916V6.08092C4.41381 6.51933 4.57889 6.94078 4.87455 7.2571C5.1702 7.57343 5.57354 7.76014 6.0002 7.77818L6.06826 7.77947H6.22583C6.65284 7.77951 7.06334 7.61003 7.37144 7.30649C7.67955 7.00294 7.86141 6.58884 7.87898 6.15081L7.88024 6.08092V5.91916C7.88024 5.8548 7.90514 5.79308 7.94946 5.74758C7.99378 5.70207 8.0539 5.67651 8.11658 5.67651ZM6.14704 2.76471C6.48135 2.76471 6.80196 2.90106 7.03836 3.14375C7.27475 3.38645 7.40755 3.71562 7.40755 4.05884V6.00004C7.40755 6.34327 7.27475 6.67243 7.03836 6.91513C6.80196 7.15783 6.48135 7.29417 6.14704 7.29417C5.81274 7.29417 5.49212 7.15783 5.25573 6.91513C5.01934 6.67243 4.88654 6.34327 4.88654 6.00004V4.05884C4.88654 3.71562 5.01934 3.38645 5.25573 3.14375C5.49212 2.90106 5.81274 2.76471 6.14704 2.76471Z" fill="white"/>
</svg>
