<svg width="39" height="39" viewBox="0 0 39 39" fill="none" xmlns="http://www.w3.org/2000/svg">
<g filter="url(#filter0_b_1_1462)">
<circle cx="19.5" cy="19.5" r="19.5" fill="black" fill-opacity="0.2"/>
<circle cx="19.5" cy="19.5" r="18.5" stroke="black" stroke-opacity="0.15" stroke-width="2"/>
</g>
<path d="M27.2407 14.4615H24.25L23.5375 12.4659C23.4883 12.3294 23.3981 12.2113 23.2792 12.128C23.1603 12.0446 23.0186 11.9999 22.8734 12H16.1266C15.8297 12 15.5637 12.1868 15.4647 12.4659L14.75 14.4615H11.7593C10.7873 14.4615 10 15.2484 10 16.2198V26.2418C10 27.2132 10.7873 28 11.7593 28H27.2407C28.2127 28 29 27.2132 29 26.2418V16.2198C29 15.2484 28.2127 14.4615 27.2407 14.4615ZM19.5 24.4835C17.556 24.4835 15.9815 22.9099 15.9815 20.967C15.9815 19.0242 17.556 17.4505 19.5 17.4505C21.444 17.4505 23.0185 19.0242 23.0185 20.967C23.0185 22.9099 21.444 24.4835 19.5 24.4835ZM17.3889 20.967C17.3889 21.5266 17.6113 22.0633 18.0072 22.459C18.4031 22.8546 18.9401 23.0769 19.5 23.0769C20.0599 23.0769 20.5969 22.8546 20.9928 22.459C21.3887 22.0633 21.6111 21.5266 21.6111 20.967C21.6111 20.4075 21.3887 19.8708 20.9928 19.4751C20.5969 19.0794 20.0599 18.8571 19.5 18.8571C18.9401 18.8571 18.4031 19.0794 18.0072 19.4751C17.6113 19.8708 17.3889 20.4075 17.3889 20.967Z" fill="white"/>
<defs>
<filter id="filter0_b_1_1462" x="-10" y="-10" width="59" height="59" filterUnits="userSpaceOnUse" color-interpolation-filters="sRGB">
<feFlood flood-opacity="0" result="BackgroundImageFix"/>
<feGaussianBlur in="BackgroundImage" stdDeviation="5"/>
<feComposite in2="SourceAlpha" operator="in" result="effect1_backgroundBlur_1_1462"/>
<feBlend mode="normal" in="SourceGraphic" in2="effect1_backgroundBlur_1_1462" result="shape"/>
</filter>
</defs>
</svg>
