<svg width="15" height="15" viewBox="0 0 15 15" fill="none" xmlns="http://www.w3.org/2000/svg">
<path d="M0.394531 7.50001L7.49979 14.6053L14.6051 7.50001L7.49979 0.394745L0.394531 7.50001Z" fill="#FF6480"/>
<path fill-rule="evenodd" clip-rule="evenodd" d="M0.115615 7.22088C-0.0385389 7.37503 -0.0385389 7.62497 0.115615 7.77912L7.22088 14.8844C7.37503 15.0385 7.62496 15.0385 7.77912 14.8844L14.8844 7.77912C14.9584 7.70509 15 7.60469 15 7.5C15 7.39531 14.9584 7.29491 14.8844 7.22088L7.77912 0.115616C7.70509 0.0415885 7.60469 3.32412e-07 7.5 3.27835e-07C7.39531 3.46787e-07 7.2949 0.0415886 7.22088 0.115616L0.115615 7.22088ZM0.394737 7.5L7.5 14.6053L14.6053 7.5L7.5 0.394737L0.394737 7.5Z" fill="#60050F"/>
<path d="M9.6711 9.27632C9.6711 9.38532 9.58274 9.47369 9.47374 9.47369C9.36473 9.47369 9.27637 9.38532 9.27637 9.27632C9.27637 9.16731 9.36473 9.07895 9.47374 9.07895C9.58274 9.07895 9.6711 9.16731 9.6711 9.27632Z" fill="#D15151"/>
<path d="M9.6711 10.0658C9.6711 10.1748 9.58274 10.2632 9.47374 10.2632C9.36473 10.2632 9.27637 10.1748 9.27637 10.0658C9.27637 9.9568 9.36473 9.86844 9.47374 9.86844C9.58274 9.86844 9.6711 9.9568 9.6711 10.0658Z" fill="#D15151"/>
<path d="M8.88106 10.8553C8.88106 10.9643 8.7927 11.0526 8.6837 11.0526C8.57469 11.0526 8.48633 10.9643 8.48633 10.8553C8.48633 10.7463 8.57469 10.6579 8.6837 10.6579C8.7927 10.6579 8.88106 10.7463 8.88106 10.8553Z" fill="#D15151"/>
<path d="M8.28927 11.6448C8.28927 11.7538 8.2009 11.8421 8.0919 11.8421C7.9829 11.8421 7.89453 11.7538 7.89453 11.6448C7.89453 11.5358 7.9829 11.4474 8.0919 11.4474C8.2009 11.4474 8.28927 11.5358 8.28927 11.6448Z" fill="#D15151"/>
<path d="M8.6838 8.68422C8.6838 8.79322 8.59543 8.88158 8.48643 8.88158C8.37743 8.88158 8.28906 8.79322 8.28906 8.68422C8.28906 8.57521 8.37743 8.48685 8.48643 8.48685C8.59543 8.48685 8.6838 8.57521 8.6838 8.68422Z" fill="#D15151"/>
<path d="M10.6574 8.09211C10.6574 8.20112 10.5691 8.28948 10.4601 8.28948C10.3511 8.28948 10.2627 8.20112 10.2627 8.09211C10.2627 7.98311 10.3511 7.89474 10.4601 7.89474C10.5691 7.89474 10.6574 7.98311 10.6574 8.09211Z" fill="#D15151"/>
<path d="M9.67121 8.1908C9.67121 8.3543 9.53866 8.48685 9.37515 8.48685C9.21165 8.48685 9.0791 8.3543 9.0791 8.1908C9.0791 8.02729 9.21165 7.89474 9.37515 7.89474C9.53866 7.89474 9.67121 8.02729 9.67121 8.1908Z" fill="#D15151"/>
<path d="M8.88117 9.9671C8.88117 10.1306 8.74862 10.2632 8.58512 10.2632C8.42161 10.2632 8.28906 10.1306 8.28906 9.9671C8.28906 9.8036 8.42161 9.67105 8.58512 9.67105C8.74862 9.67105 8.88117 9.8036 8.88117 9.9671Z" fill="#D15151"/>
<path d="M0.394531 7.50001L7.49979 0.394745L14.6051 7.50001L0.394531 7.50001Z" fill="#FF8298"/>
<path fill-rule="evenodd" clip-rule="evenodd" d="M7.48522 1.20263C7.58404 1.24863 7.62686 1.36603 7.58086 1.46485L4.91639 7.18854C4.87038 7.28736 4.75298 7.33018 4.65416 7.28417C4.55534 7.23817 4.51252 7.12077 4.55852 7.02195L7.223 1.29826C7.269 1.19944 7.3864 1.15663 7.48522 1.20263Z" fill="#FFADBC"/>
<path d="M3.94737 7.50001L7.5 14.6053L0.394735 7.50001L7.5 0.394745L3.94737 7.50001Z" fill="#EE8BBB"/>
<path d="M1.97368 7.50001L7.5 14.6053L0.394735 7.50001L7.5 0.394745L1.97368 7.50001Z" fill="#FF9BAD"/>
<path d="M3.94737 7.50001L7.5 0.394745L0.394735 7.50001L3.94737 7.50001Z" fill="#FFABD3"/>
<path d="M1.97368 7.50001L7.5 0.394745L0.394735 7.50001L1.97368 7.50001Z" fill="#FFC6D0"/>
<path d="M11.0526 7.50001L7.5 14.6053L14.6053 7.50001L7.5 0.394745L11.0526 7.50001Z" fill="#AC2F6B"/>
<path d="M11.0526 7.50001L7.5 0.394745L14.6053 7.50001L11.0526 7.50001Z" fill="#C64683"/>
<path d="M13.0263 7.50001L7.5 14.6053L14.6053 7.50001L7.5 0.394745L13.0263 7.50001Z" fill="#D74E67"/>
<path d="M13.0263 7.50001L7.5 0.394745L14.6053 7.50001L13.0263 7.50001Z" fill="#EB5D76"/>
</svg>
