<svg width="11" height="11" viewBox="0 0 11 11" fill="none" xmlns="http://www.w3.org/2000/svg">
<path d="M5.50003 0C6.22938 0 6.92886 0.289542 7.44458 0.804931C7.96031 1.32032 8.25005 2.01934 8.25005 2.74821C8.25005 3.47708 7.96031 4.17609 7.44458 4.69148C6.92886 5.20687 6.22938 5.49641 5.50003 5.49641C4.77068 5.49641 4.0712 5.20687 3.55548 4.69148C3.03975 4.17609 2.75002 3.47708 2.75002 2.74821C2.75002 2.01934 3.03975 1.32032 3.55548 0.804931C4.0712 0.289542 4.77068 0 5.50003 0V0ZM5.50003 6.87052C8.5388 6.87052 11.0001 8.10034 11.0001 9.61872V10.9928H0L0 9.61872C0 8.10034 2.46126 6.87052 5.50003 6.87052Z" fill="white"/>
</svg>
