<svg width="360" height="56" viewBox="0 0 360 56" fill="none" xmlns="http://www.w3.org/2000/svg">
<g opacity="0.25">
<circle cx="317.429" cy="27.7635" r="26.7635" stroke="white" stroke-width="2" stroke-dasharray="8 8"/>
<path fill-rule="evenodd" clip-rule="evenodd" d="M314.719 31.1546C312.495 30.1287 310.951 27.8791 310.951 25.2688V24.0617C310.951 20.4839 313.852 17.5836 317.429 17.5836C321.007 17.5836 323.907 20.4839 323.907 24.0617V25.2688C323.907 27.8791 322.364 30.1287 320.139 31.1546C319.87 29.9731 318.813 29.0913 317.55 29.0913H317.429C319.474 29.0913 321.131 27.434 321.131 25.3895V23.941C321.131 21.8966 319.474 20.2392 317.429 20.2392C315.385 20.2392 313.727 21.8966 313.727 23.941V25.3895C313.727 27.434 315.385 29.0913 317.429 29.0913H317.309C316.046 29.0913 314.988 29.9731 314.719 31.1546Z" fill="white"/>
<path fill-rule="evenodd" clip-rule="evenodd" d="M310.175 25.5505C309.07 25.5505 308.175 26.4459 308.175 27.5505V35.9435C308.175 37.048 309.07 37.9435 310.175 37.9435H324.684C325.788 37.9435 326.684 37.048 326.684 35.9435V27.5505C326.684 26.4459 325.788 25.5505 324.684 25.5505H310.175ZM314.653 31.747C314.653 33.2137 315.842 34.4026 317.309 34.4026H317.55C319.017 34.4026 320.206 33.2137 320.206 31.747C320.206 30.2803 319.017 29.0913 317.55 29.0913H317.309C315.842 29.0913 314.653 30.2803 314.653 31.747Z" fill="white"/>
</g>
<g opacity="0.25">
<circle cx="225.81" cy="27.7635" r="26.7635" stroke="white" stroke-width="2" stroke-dasharray="8 8"/>
<path fill-rule="evenodd" clip-rule="evenodd" d="M223.1 31.1546C220.876 30.1287 219.332 27.8791 219.332 25.2688V24.0617C219.332 20.4839 222.232 17.5836 225.81 17.5836C229.388 17.5836 232.288 20.4839 232.288 24.0617V25.2688C232.288 27.8791 230.744 30.1287 228.52 31.1546C228.251 29.9731 227.194 29.0913 225.931 29.0913H225.81C227.855 29.0913 229.512 27.434 229.512 25.3895V23.941C229.512 21.8966 227.855 20.2392 225.81 20.2392C223.766 20.2392 222.108 21.8966 222.108 23.941V25.3895C222.108 27.434 223.766 29.0913 225.81 29.0913H225.689C224.426 29.0913 223.369 29.9731 223.1 31.1546Z" fill="white"/>
<path fill-rule="evenodd" clip-rule="evenodd" d="M218.556 25.5505C217.451 25.5505 216.556 26.4459 216.556 27.5505V35.9435C216.556 37.048 217.451 37.9435 218.556 37.9435H233.065C234.169 37.9435 235.065 37.048 235.065 35.9435V27.5505C235.065 26.4459 234.169 25.5505 233.065 25.5505H218.556ZM223.034 31.747C223.034 33.2137 224.223 34.4026 225.689 34.4026H225.931C227.397 34.4026 228.586 33.2137 228.586 31.747C228.586 30.2803 227.397 29.0913 225.931 29.0913H225.689C224.223 29.0913 223.034 30.2803 223.034 31.747Z" fill="white"/>
</g>
<g opacity="0.25">
<circle cx="134.19" cy="27.7635" r="26.7635" stroke="white" stroke-width="2" stroke-dasharray="8 8"/>
<path fill-rule="evenodd" clip-rule="evenodd" d="M131.48 31.1546C129.256 30.1287 127.712 27.8791 127.712 25.2688V24.0617C127.712 20.4839 130.613 17.5836 134.19 17.5836C137.768 17.5836 140.669 20.4839 140.669 24.0617V25.2688C140.669 27.8791 139.125 30.1287 136.9 31.1546C136.631 29.9731 135.574 29.0913 134.311 29.0913H134.19C136.235 29.0913 137.892 27.434 137.892 25.3895V23.941C137.892 21.8966 136.235 20.2392 134.19 20.2392C132.146 20.2392 130.489 21.8966 130.489 23.941V25.3895C130.489 27.434 132.146 29.0913 134.19 29.0913H134.07C132.807 29.0913 131.75 29.9731 131.48 31.1546Z" fill="white"/>
<path fill-rule="evenodd" clip-rule="evenodd" d="M126.936 25.5505C125.831 25.5505 124.936 26.4459 124.936 27.5505V35.9435C124.936 37.048 125.831 37.9435 126.936 37.9435H141.445C142.55 37.9435 143.445 37.048 143.445 35.9435V27.5505C143.445 26.4459 142.55 25.5505 141.445 25.5505H126.936ZM131.414 31.747C131.414 33.2137 132.603 34.4026 134.07 34.4026H134.311C135.778 34.4026 136.967 33.2137 136.967 31.747C136.967 30.2803 135.778 29.0913 134.311 29.0913H134.07C132.603 29.0913 131.414 30.2803 131.414 31.747Z" fill="white"/>
</g>
<g opacity="0.25">
<circle cx="42.5708" cy="27.7635" r="26.7635" stroke="white" stroke-width="2" stroke-dasharray="8 8"/>
<path fill-rule="evenodd" clip-rule="evenodd" d="M39.8608 31.1546C37.6365 30.1287 36.0927 27.8791 36.0927 25.2688V24.0617C36.0927 20.4839 38.993 17.5836 42.5708 17.5836C46.1486 17.5836 49.049 20.4839 49.049 24.0617V25.2688C49.049 27.8791 47.5052 30.1287 45.2809 31.1546C45.0117 29.9731 43.9546 29.0913 42.6915 29.0913H42.5708C44.6153 29.0913 46.2726 27.434 46.2726 25.3895V23.941C46.2726 21.8966 44.6153 20.2392 42.5708 20.2392C40.5264 20.2392 38.869 21.8966 38.869 23.941V25.3895C38.869 27.434 40.5264 29.0913 42.5708 29.0913H42.4501C41.1871 29.0913 40.13 29.9731 39.8608 31.1546Z" fill="white"/>
<path fill-rule="evenodd" clip-rule="evenodd" d="M35.3163 25.5505C34.2117 25.5505 33.3163 26.4459 33.3163 27.5505V35.9435C33.3163 37.048 34.2117 37.9435 35.3163 37.9435H49.8253C50.9299 37.9435 51.8253 37.048 51.8253 35.9435V27.5505C51.8253 26.4459 50.9299 25.5505 49.8253 25.5505H35.3163ZM39.7945 31.747C39.7945 33.2137 40.9834 34.4026 42.4501 34.4026H42.6915C44.1582 34.4026 45.3472 33.2137 45.3472 31.747C45.3472 30.2803 44.1582 29.0913 42.6915 29.0913H42.4501C40.9834 29.0913 39.7945 30.2803 39.7945 31.747Z" fill="white"/>
</g>
</svg>
