<svg width="86" height="56" viewBox="0 0 86 56" fill="none" xmlns="http://www.w3.org/2000/svg">
<g opacity="0.25">
<circle cx="42.9334" cy="28" r="27" stroke="white" stroke-width="2" stroke-dasharray="8 8"/>
<path fill-rule="evenodd" clip-rule="evenodd" d="M40.2002 31.42C37.9569 30.3854 36.4 28.1166 36.4 25.4841V24.2667C36.4 20.6584 39.3251 17.7333 42.9333 17.7333C46.5416 17.7333 49.4667 20.6584 49.4667 24.2667V25.4841C49.4667 28.1165 47.9097 30.3854 45.6664 31.42C45.395 30.2284 44.3289 29.3391 43.0551 29.3391H42.9333C44.9952 29.3391 46.6667 27.6677 46.6667 25.6058V24.1449C46.6667 22.0831 44.9952 20.4116 42.9333 20.4116C40.8715 20.4116 39.2 22.0831 39.2 24.1449V25.6058C39.2 27.6677 40.8715 29.3391 42.9333 29.3391H42.8116C41.5378 29.3391 40.4717 30.2284 40.2002 31.42Z" fill="white"/>
<path fill-rule="evenodd" clip-rule="evenodd" d="M35.617 25.7681C34.503 25.7681 33.6 26.6712 33.6 27.7852V36.2496C33.6 37.3636 34.503 38.2667 35.617 38.2667H50.2496C51.3636 38.2667 52.2666 37.3636 52.2666 36.2496V27.7852C52.2666 26.6712 51.3636 25.7681 50.2496 25.7681H35.617ZM40.1333 32.0174C40.1333 33.4966 41.3324 34.6957 42.8116 34.6957H43.055C44.5342 34.6957 45.7333 33.4966 45.7333 32.0174C45.7333 30.5382 44.5342 29.3391 43.055 29.3391H42.8116C41.3324 29.3391 40.1333 30.5382 40.1333 32.0174Z" fill="white"/>
</g>
</svg>
