<svg width="9" height="10" viewBox="0 0 9 10" fill="none" xmlns="http://www.w3.org/2000/svg">
<path d="M0.642857 2.85714V9.28571H6.42857V2.85714H0.642857ZM0.321429 2.14286H6.75C6.83525 2.14286 6.917 2.18048 6.97728 2.24746C7.03756 2.31444 7.07143 2.40528 7.07143 2.5V9.64286C7.07143 9.73758 7.03756 9.82842 6.97728 9.8954C6.917 9.96237 6.83525 10 6.75 10H0.321429C0.23618 10 0.154424 9.96237 0.0941442 9.8954C0.0338647 9.82842 0 9.73758 0 9.64286V2.5C0 2.40528 0.0338647 2.31444 0.0941442 2.24746C0.154424 2.18048 0.23618 2.14286 0.321429 2.14286V2.14286ZM9 0.357143V8.21429C9 8.30901 8.96614 8.39985 8.90586 8.46682C8.84558 8.5338 8.76382 8.57143 8.67857 8.57143H7.71429V7.85714H8.35714V0.714286H3.21429V1.42857H2.57143V0.357143C2.57143 0.262423 2.60529 0.171582 2.66557 0.104605C2.72585 0.0376274 2.80761 0 2.89286 0H8.67857C8.76382 0 8.84558 0.0376274 8.90586 0.104605C8.96614 0.171582 9 0.262423 9 0.357143ZM1.92857 6.78571H5.14286V7.5H1.92857V6.78571ZM1.92857 4.64286H5.14286V5.35714H1.92857V4.64286Z" fill="white"/>
</svg>
