<svg width="58" height="58" viewBox="0 0 58 58" fill="none" xmlns="http://www.w3.org/2000/svg">
<circle cx="29" cy="29" r="27.736" stroke="white" stroke-opacity="0.3" stroke-width="2.5"/>
<path d="M33.5197 32.687C33.4238 31.4685 33.3969 30.246 33.4391 29.0247L33.4376 29.0784C34.604 27.947 35.3314 26.4824 35.5037 24.9186L35.5068 24.8881C36.0323 24.8475 36.8616 24.3689 37.1034 22.4717C37.1763 22.145 37.1488 21.8056 37.024 21.4929C36.8991 21.1802 36.6821 20.907 36.3981 20.7051L36.3934 20.7022C37.2491 18.2945 39.0254 10.8451 33.1059 10.0764C32.4967 9.0756 30.9374 8.56795 28.91 8.56795C20.7988 8.70719 19.8207 14.2986 21.5939 20.7022C21.3076 20.906 21.0892 21.1819 20.9643 21.4975C20.8394 21.8132 20.8132 22.1556 20.8887 22.4848L20.8871 22.4732C21.1351 24.3674 21.9582 24.849 22.4836 24.8896C22.668 26.4708 23.4186 27.9471 24.6134 29.0784C24.6526 30.3211 24.6226 31.5648 24.5235 32.8045L24.5312 32.687C22.9223 36.725 12.0908 35.5908 11.5948 43.3781H46.405C45.9059 35.5908 35.124 36.725 33.5182 32.687H33.5197Z" fill="white" fill-opacity="0.3"/>
</svg>
