<svg width="17" height="17" viewBox="0 0 17 17" fill="none" xmlns="http://www.w3.org/2000/svg">
<path d="M8.5 15.9375C6.52745 15.9375 4.6357 15.1539 3.24089 13.7591C1.84609 12.3643 1.0625 10.4725 1.0625 8.5C1.0625 6.52745 1.84609 4.6357 3.24089 3.24089C4.6357 1.84609 6.52745 1.0625 8.5 1.0625C10.4725 1.0625 12.3643 1.84609 13.7591 3.24089C15.1539 4.6357 15.9375 6.52745 15.9375 8.5C15.9375 10.4725 15.1539 12.3643 13.7591 13.7591C12.3643 15.1539 10.4725 15.9375 8.5 15.9375ZM8.5 17C10.7543 17 12.9163 16.1045 14.5104 14.5104C16.1045 12.9163 17 10.7543 17 8.5C17 6.24566 16.1045 4.08365 14.5104 2.48959C12.9163 0.895533 10.7543 0 8.5 0C6.24566 0 4.08365 0.895533 2.48959 2.48959C0.895533 4.08365 0 6.24566 0 8.5C0 10.7543 0.895533 12.9163 2.48959 14.5104C4.08365 16.1045 6.24566 17 8.5 17V17Z" fill="#8D8D8D"/>
<path d="M5.58372 6.14762C5.58227 6.18194 5.58785 6.21618 5.60012 6.24826C5.61239 6.28034 5.63109 6.30956 5.65507 6.33415C5.67906 6.35873 5.70782 6.37814 5.73958 6.3912C5.77135 6.40425 5.80545 6.41067 5.83978 6.41006H6.71635C6.86297 6.41006 6.97985 6.29 6.99897 6.14444C7.0946 5.44744 7.57272 4.93956 8.42485 4.93956C9.15372 4.93956 9.82097 5.304 9.82097 6.18056C9.82097 6.85525 9.4236 7.1655 8.79566 7.63725C8.0806 8.15681 7.51428 8.7635 7.55466 9.74844L7.55785 9.979C7.55896 10.0487 7.58744 10.1152 7.63713 10.1641C7.68683 10.213 7.75375 10.2404 7.82347 10.2404H8.68516C8.75561 10.2404 8.82317 10.2124 8.87299 10.1626C8.9228 10.1128 8.95078 10.0452 8.95078 9.97475V9.86319C8.95078 9.10031 9.24085 8.87825 10.0239 8.28431C10.671 7.79237 11.3457 7.24625 11.3457 6.09981C11.3457 4.49438 9.98991 3.71875 8.5056 3.71875C7.15941 3.71875 5.68466 4.34562 5.58372 6.14762V6.14762ZM7.23803 12.2708C7.23803 12.8371 7.6896 13.2557 8.31116 13.2557C8.95822 13.2557 9.40341 12.8371 9.40341 12.2708C9.40341 11.6843 8.95716 11.2721 8.3101 11.2721C7.6896 11.2721 7.23803 11.6843 7.23803 12.2708Z" fill="#8D8D8D"/>
</svg>
