<svg width="17" height="17" viewBox="0 0 17 17" fill="none" xmlns="http://www.w3.org/2000/svg">
<path d="M8.49993 15.9375C10.4725 15.9375 12.3642 15.1539 13.759 13.7591C15.1538 12.3643 15.9374 10.4726 15.9374 8.50001C15.9374 6.52746 15.1538 4.6357 13.759 3.2409C12.3642 1.84609 10.4725 1.0625 8.49993 1.0625C6.52738 1.0625 4.63562 1.84609 3.24082 3.2409C1.84602 4.6357 1.06243 6.52746 1.06243 8.50001C1.06243 10.4726 1.84602 12.3643 3.24082 13.7591C4.63562 15.1539 6.52738 15.9375 8.49993 15.9375ZM8.49993 17C6.24559 17 4.08358 16.1045 2.48952 14.5104C0.895458 12.9164 -7.57982e-05 10.7543 -7.57982e-05 8.50001C-7.57982e-05 6.24566 0.895458 4.08365 2.48952 2.48959C4.08358 0.895534 6.24559 0 8.49993 0C10.7543 0 12.9163 0.895534 14.5103 2.48959C16.1044 4.08365 16.9999 6.24566 16.9999 8.50001C16.9999 10.7543 16.1044 12.9164 14.5103 14.5104C12.9163 16.1045 10.7543 17 8.49993 17V17Z" fill="#808080"/>
<path d="M12.4472 10.1649C12.3252 10.0945 12.1802 10.0754 12.0441 10.1119C11.908 10.1483 11.792 10.2374 11.7215 10.3594C11.3952 10.925 10.9257 11.3946 10.3601 11.7211C9.79457 12.0475 9.15301 12.2191 8.50002 12.2188C7.84704 12.2191 7.20548 12.0475 6.63993 11.7211C6.07439 11.3946 5.60483 10.925 5.27852 10.3594C5.24389 10.2985 5.19756 10.245 5.14219 10.2021C5.08682 10.1592 5.0235 10.1276 4.95589 10.1093C4.88827 10.0909 4.8177 10.0861 4.74822 10.0951C4.67874 10.1042 4.61174 10.1268 4.55106 10.1619C4.49039 10.1969 4.43724 10.2436 4.39469 10.2992C4.35213 10.3549 4.321 10.4184 4.30309 10.4862C4.28518 10.5539 4.28085 10.6245 4.29034 10.6939C4.29983 10.7633 4.32296 10.8302 4.35839 10.8906C4.77795 11.6178 5.38164 12.2215 6.1087 12.6412C6.83576 13.0609 7.66053 13.2816 8.50002 13.2813C9.33951 13.2816 10.1643 13.0609 10.8913 12.6412C11.6184 12.2215 12.2221 11.6178 12.6417 10.8906C12.7121 10.7686 12.7312 10.6236 12.6947 10.4875C12.6583 10.3514 12.5692 10.2354 12.4472 10.1649ZM9.56252 6.90625C9.56252 7.786 10.0385 8.5 10.625 8.5C11.2115 8.5 11.6875 7.786 11.6875 6.90625C11.6875 6.0265 11.2115 5.3125 10.625 5.3125C10.0385 5.3125 9.56252 6.0265 9.56252 6.90625ZM5.31252 6.90625C5.31252 7.786 5.78852 8.5 6.37502 8.5C6.96152 8.5 7.43752 7.786 7.43752 6.90625C7.43752 6.0265 6.96152 5.3125 6.37502 5.3125C5.78852 5.3125 5.31252 6.0265 5.31252 6.90625Z" fill="#808080"/>
</svg>
