<svg width="15" height="14" viewBox="0 0 15 14" fill="none" xmlns="http://www.w3.org/2000/svg">
<path fill-rule="evenodd" clip-rule="evenodd" d="M6.19759 0.0168434C5.28167 0.0831482 4.47858 0.240031 4.05797 0.434845C3.72112 0.590835 3.44335 0.858534 3.28358 1.1811C3.04795 1.6568 3.0577 1.47376 3.12608 4.14368C3.1495 5.05786 3.162 5.81228 3.15383 5.82015C3.14569 5.82802 3.03126 5.85077 2.89958 5.87071C2.76791 5.89065 2.56346 5.95028 2.44521 6.00319C2.21332 6.107 1.89822 6.37073 1.78457 6.55618L1.714 6.67136L1.89516 6.51809C2.22383 6.24007 2.56555 6.13021 2.93551 6.18362C3.25552 6.22985 3.52818 6.62596 3.81121 7.45591C3.888 7.68111 3.98499 8.03417 4.02675 8.24042L4.10261 8.61543L7.01023 8.61567L9.91785 8.6159L9.94055 8.47535C9.97998 8.23106 10.1898 7.486 10.3009 7.19598C10.449 6.80917 10.633 6.48349 10.7677 6.3696C10.9027 6.25548 11.1984 6.18607 11.4108 6.21864C11.6262 6.25168 11.8747 6.37003 12.1007 6.54732L12.3024 6.70546L12.1959 6.55641C11.9233 6.17495 11.4246 5.90778 10.98 5.90497C10.8542 5.90421 10.8512 5.90127 10.8512 5.78017C10.8512 5.71198 10.8752 4.79886 10.9046 3.75104C10.9642 1.62373 10.9646 1.62989 10.7402 1.18549C10.4028 0.517221 9.80888 0.240064 8.34624 0.0682338C7.82192 0.00662489 6.70694 -0.0200624 6.19759 0.0168434ZM0.681346 7.99819C0.358514 8.11443 0.140808 8.33186 0.048904 8.62992C-0.0106483 8.82295 -0.0170018 9.25054 0.0364029 9.46933C0.0928985 9.70078 0.384238 10.2566 0.577147 10.5009C0.941226 10.962 1.65881 11.5597 2.28823 11.9261L2.56885 12.0895L2.31893 12.5932C2.07839 13.078 2.06465 13.0975 1.95248 13.1155C1.78543 13.1423 1.68724 13.2017 1.61097 13.3222C1.47108 13.5431 1.57044 13.8296 1.82929 13.9518C1.99922 14.032 2.16435 14.0025 2.32161 13.8637C2.46008 13.7415 2.50782 13.5427 2.43779 13.3799C2.39669 13.2844 2.40592 13.2675 2.745 12.8171C2.93729 12.5617 3.11279 12.3529 3.13497 12.3531C3.15716 12.3533 3.24735 12.3745 3.33537 12.4003C3.46883 12.4393 4.07847 12.447 7.0068 12.447C10.3685 12.447 10.5271 12.4443 10.7276 12.3838C10.8428 12.349 10.9536 12.3204 10.9738 12.3201C10.994 12.3199 11.1606 12.5278 11.3439 12.7821L11.6772 13.2445L11.6219 13.4075C11.5692 13.5624 11.5699 13.5779 11.6349 13.7194C11.6726 13.8014 11.7418 13.8927 11.7888 13.9223C12.1792 14.1686 12.6369 13.787 12.4529 13.3686C12.3902 13.226 12.2992 13.1534 12.1444 13.1224C12.0171 13.0969 12.0132 13.0914 11.7769 12.5903C11.6455 12.3118 11.5381 12.0722 11.5381 12.0578C11.5381 12.0434 11.6578 11.9605 11.8042 11.8736C12.3998 11.5199 13.0814 10.9451 13.4322 10.5009C13.641 10.2364 13.9228 9.68848 13.9784 9.43887C14.0394 9.16432 14.0061 8.70184 13.9115 8.51196C13.6475 7.98195 12.9405 7.79564 12.4286 8.12114C12.0313 8.37379 11.6716 8.82566 11.0889 9.80416C10.7318 10.4038 10.4841 10.6876 10.2195 10.8004C10.0659 10.8658 9.99818 10.8672 7.00467 10.8672C4.01116 10.8672 3.94343 10.8658 3.78988 10.8004C3.51901 10.685 3.27812 10.406 2.90157 9.77158C2.27957 8.72364 1.91917 8.28335 1.51096 8.07263C1.28837 7.95774 0.892321 7.92219 0.681346 7.99819Z" fill="black"/>
</svg>
