<svg width="59" height="21" viewBox="0 0 59 21" fill="none" xmlns="http://www.w3.org/2000/svg">
<path d="M19.0809 19.3319L14.8129 15.0563L19.0809 19.3319ZM17.1781 9.34222C17.1781 11.487 16.326 13.5439 14.8095 15.0605C13.2929 16.5771 11.2359 17.4291 9.09115 17.4291C6.94637 17.4291 4.88944 16.5771 3.37285 15.0605C1.85627 13.5439 1.00426 11.487 1.00426 9.34222C1.00426 7.19744 1.85627 5.1405 3.37285 3.62392C4.88944 2.10733 6.94637 1.25532 9.09115 1.25532C11.2359 1.25532 13.2929 2.10733 14.8095 3.62392C16.326 5.1405 17.1781 7.19744 17.1781 9.34222V9.34222Z" stroke="#454545" stroke-width="2" stroke-linecap="round" stroke-linejoin="round"/>
<path d="M48.3273 0.907194L39.166 9.57073V18.9212C39.166 19.1633 39.2497 19.3955 39.3988 19.5667C39.5479 19.7379 39.7501 19.834 39.961 19.834L45.5292 19.8175C45.7394 19.8163 45.9406 19.7196 46.0888 19.5485C46.2371 19.3775 46.3203 19.146 46.3203 18.9046V13.4441C46.3203 13.202 46.404 12.9698 46.5531 12.7986C46.7022 12.6274 46.9045 12.5312 47.1153 12.5312H50.2955C50.5063 12.5312 50.7085 12.6274 50.8576 12.7986C51.0067 12.9698 51.0905 13.202 51.0905 13.4441V18.9007C51.0902 19.0208 51.1105 19.1398 51.1503 19.2509C51.1901 19.3619 51.2486 19.4629 51.3225 19.548C51.3963 19.633 51.4841 19.7005 51.5807 19.7466C51.6773 19.7927 51.7809 19.8164 51.8855 19.8164L57.4518 19.834C57.6626 19.834 57.8649 19.7379 58.014 19.5667C58.1631 19.3955 58.2468 19.1633 58.2468 18.9212V9.56446L49.0875 0.907194C48.9798 0.807536 48.8457 0.753191 48.7074 0.753191C48.5691 0.753191 48.4349 0.807536 48.3273 0.907194Z" stroke="#454545" stroke-width="1.5" stroke-linejoin="round"/>
</svg>
