<svg width="15" height="15" viewBox="0 0 15 15" fill="none" xmlns="http://www.w3.org/2000/svg">
<path d="M14.75 12.5C14.75 13.7369 13.7369 14.75 12.5 14.75H2.5C1.26307 14.75 0.25 13.7369 0.25 12.5V2.5C0.25 1.26307 1.26307 0.25 2.5 0.25H12.5C13.7369 0.25 14.75 1.26307 14.75 2.5V12.5Z" stroke="#454545" stroke-width="0.5"/>
<path d="M11.76 4.56176C11.61 4.27059 11.4 3.97941 11.13 3.74118C10.86 3.50294 10.53 3.31765 10.17 3.18529C9.81 3.07941 9.39 3 9 3H6V12H9C9.39 12 9.81 11.9206 10.17 11.7882C10.53 11.6559 10.86 11.4706 11.13 11.2324C11.4 10.9941 11.61 10.7294 11.76 10.4118C11.91 10.0941 12 9.77647 12 9.43235V5.54118C12 5.19706 11.91 4.87941 11.76 4.56176V4.56176ZM9 10.8353H7.38V4.16471H9C9.9 4.16471 10.62 4.77353 10.62 5.54118V9.45882C10.62 10.2 9.9 10.8353 9 10.8353ZM3 3H4.2V12H3V3Z" fill="#454545"/>
</svg>
