<svg width="15" height="15" viewBox="0 0 15 15" fill="none" xmlns="http://www.w3.org/2000/svg">
<path d="M0.394531 7.49998L7.49979 14.6052L14.6051 7.49998L7.49979 0.394715L0.394531 7.49998Z" fill="#FF6480"/>
<path fill-rule="evenodd" clip-rule="evenodd" d="M0.115615 7.22088C-0.0385389 7.37503 -0.0385389 7.62497 0.115615 7.77912L7.22088 14.8844C7.37503 15.0385 7.62496 15.0385 7.77912 14.8844L14.8844 7.77912C14.9584 7.70509 15 7.60469 15 7.5C15 7.39531 14.9584 7.29491 14.8844 7.22088L7.77912 0.115616C7.70509 0.0415885 7.60469 3.32412e-07 7.5 3.27835e-07C7.39531 3.46787e-07 7.2949 0.0415886 7.22088 0.115616L0.115615 7.22088ZM0.394737 7.5L7.5 14.6053L14.6053 7.5L7.5 0.394737L0.394737 7.5Z" fill="#60050F"/>
<path d="M9.6711 9.27629C9.6711 9.38529 9.58274 9.47366 9.47374 9.47366C9.36473 9.47366 9.27637 9.38529 9.27637 9.27629C9.27637 9.16728 9.36473 9.07892 9.47374 9.07892C9.58274 9.07892 9.6711 9.16728 9.6711 9.27629Z" fill="#D15151"/>
<path d="M9.6711 10.0658C9.6711 10.1748 9.58274 10.2631 9.47374 10.2631C9.36473 10.2631 9.27637 10.1748 9.27637 10.0658C9.27637 9.95677 9.36473 9.86841 9.47374 9.86841C9.58274 9.86841 9.6711 9.95677 9.6711 10.0658Z" fill="#D15151"/>
<path d="M8.88106 10.8553C8.88106 10.9643 8.7927 11.0526 8.6837 11.0526C8.57469 11.0526 8.48633 10.9643 8.48633 10.8553C8.48633 10.7463 8.57469 10.6579 8.6837 10.6579C8.7927 10.6579 8.88106 10.7463 8.88106 10.8553Z" fill="#D15151"/>
<path d="M8.28927 11.6447C8.28927 11.7537 8.2009 11.8421 8.0919 11.8421C7.9829 11.8421 7.89453 11.7537 7.89453 11.6447C7.89453 11.5357 7.9829 11.4473 8.0919 11.4473C8.2009 11.4473 8.28927 11.5357 8.28927 11.6447Z" fill="#D15151"/>
<path d="M8.6838 8.68418C8.6838 8.79319 8.59543 8.88155 8.48643 8.88155C8.37743 8.88155 8.28906 8.79319 8.28906 8.68418C8.28906 8.57518 8.37743 8.48682 8.48643 8.48682C8.59543 8.48682 8.6838 8.57518 8.6838 8.68418Z" fill="#D15151"/>
<path d="M10.6574 8.09208C10.6574 8.20109 10.5691 8.28945 10.4601 8.28945C10.3511 8.28945 10.2627 8.20109 10.2627 8.09208C10.2627 7.98308 10.3511 7.89471 10.4601 7.89471C10.5691 7.89471 10.6574 7.98308 10.6574 8.09208Z" fill="#D15151"/>
<path d="M9.67121 8.19077C9.67121 8.35427 9.53866 8.48682 9.37515 8.48682C9.21165 8.48682 9.0791 8.35427 9.0791 8.19077C9.0791 8.02726 9.21165 7.89471 9.37515 7.89471C9.53866 7.89471 9.67121 8.02726 9.67121 8.19077Z" fill="#D15151"/>
<path d="M8.88117 9.96707C8.88117 10.1306 8.74862 10.2631 8.58512 10.2631C8.42161 10.2631 8.28906 10.1306 8.28906 9.96707C8.28906 9.80357 8.42161 9.67102 8.58512 9.67102C8.74862 9.67102 8.88117 9.80357 8.88117 9.96707Z" fill="#D15151"/>
<path d="M0.394531 7.49998L7.49979 0.394715L14.6051 7.49998L0.394531 7.49998Z" fill="#FF8298"/>
<path fill-rule="evenodd" clip-rule="evenodd" d="M7.48522 1.20263C7.58404 1.24863 7.62686 1.36603 7.58086 1.46485L4.91639 7.18854C4.87038 7.28736 4.75298 7.33018 4.65416 7.28417C4.55534 7.23817 4.51252 7.12077 4.55852 7.02195L7.223 1.29826C7.269 1.19944 7.3864 1.15663 7.48522 1.20263Z" fill="#FFADBC"/>
<path d="M3.94737 7.49998L7.5 14.6052L0.394735 7.49998L7.5 0.394714L3.94737 7.49998Z" fill="#EE8BBB"/>
<path d="M1.97368 7.49998L7.5 14.6052L0.394735 7.49998L7.5 0.394714L1.97368 7.49998Z" fill="#FF9BAD"/>
<path d="M3.94737 7.49998L7.5 0.394714L0.394735 7.49998L3.94737 7.49998Z" fill="#FFABD3"/>
<path d="M1.97368 7.49998L7.5 0.394714L0.394735 7.49998L1.97368 7.49998Z" fill="#FFC6D0"/>
<path d="M11.0526 7.49998L7.5 14.6052L14.6053 7.49998L7.5 0.394714L11.0526 7.49998Z" fill="#AC2F6B"/>
<path d="M11.0526 7.49998L7.5 0.394714L14.6053 7.49998L11.0526 7.49998Z" fill="#C64683"/>
<path d="M13.0263 7.49998L7.5 14.6052L14.6053 7.49998L7.5 0.394714L13.0263 7.49998Z" fill="#D74E67"/>
<path d="M13.0263 7.49998L7.5 0.394714L14.6053 7.49998L13.0263 7.49998Z" fill="#EB5D76"/>
</svg>
