<svg width="17" height="17" viewBox="0 0 17 17" fill="none" xmlns="http://www.w3.org/2000/svg">
<path fill-rule="evenodd" clip-rule="evenodd" d="M17 8.50001C17 8.24956 16.9186 8.00937 16.7737 7.83228C16.6288 7.65519 16.4322 7.5557 16.2273 7.5557H2.63924L7.50239 1.6141C7.64747 1.43678 7.72898 1.19629 7.72898 0.945523C7.72898 0.69476 7.64747 0.454267 7.50239 0.276951C7.3573 0.0996343 7.16052 1.97191e-05 6.95534 1.97142e-05C6.75016 1.97092e-05 6.55338 0.0996343 6.4083 0.276951L0.226987 7.83144C0.155032 7.91916 0.0979433 8.02336 0.0589911 8.13809C0.0200389 8.25281 -1.15396e-05 8.3758 -1.15396e-05 8.50001C-1.15396e-05 8.62422 0.0200389 8.74721 0.0589911 8.86193C0.0979433 8.97666 0.155032 9.08086 0.226987 9.16858L6.4083 16.7231C6.55338 16.9004 6.75016 17 6.95534 17C7.16052 17 7.3573 16.9004 7.50239 16.7231C7.64747 16.5458 7.72898 16.3053 7.72898 16.0545C7.72898 15.8037 7.64747 15.5632 7.50239 15.3859L2.63924 9.44432L16.2273 9.44432C16.4322 9.44432 16.6288 9.34483 16.7737 9.16774C16.9186 8.99064 17 8.75046 17 8.50001Z" fill="white"/>
</svg>
