<svg width="7" height="7" viewBox="0 0 7 7" fill="none" xmlns="http://www.w3.org/2000/svg">
<path d="M3.5 0C3.96413 0 4.40925 0.184374 4.73744 0.512563C5.06563 0.840752 5.25 1.28587 5.25 1.75C5.25 2.21413 5.06563 2.65925 4.73744 2.98744C4.40925 3.31563 3.96413 3.5 3.5 3.5C3.03587 3.5 2.59075 3.31563 2.26256 2.98744C1.93437 2.65925 1.75 2.21413 1.75 1.75C1.75 1.28587 1.93437 0.840752 2.26256 0.512563C2.59075 0.184374 3.03587 0 3.5 0V0ZM3.5 4.375C5.43375 4.375 7 5.15812 7 6.125V7H0V6.125C0 5.15812 1.56625 4.375 3.5 4.375Z" fill="#787878"/>
</svg>
