<svg width="97" height="97" viewBox="0 0 97 97" fill="none" xmlns="http://www.w3.org/2000/svg">
<g filter="url(#filter0_b_0_1534)">
<path fill-rule="evenodd" clip-rule="evenodd" d="M48.5 97C75.2858 97 97 75.2858 97 48.5C97 21.7142 75.2858 0 48.5 0C21.7142 0 0 21.7142 0 48.5C0 75.2858 21.7142 97 48.5 97ZM81.3952 32.6463L80.9142 25.4316L81.8762 24.4696V23.5077V22.5457V21.1028L80.9142 20.6218L79.4713 20.1408H77.5473H75.6234L71.7756 20.6218L68.4087 21.5838H69.3707H70.3327H71.2946L72.7375 22.0647L73.6995 22.5457L74.1805 23.0267L75.1424 23.9887L76.5854 26.3936L77.0664 28.3175L77.5473 30.2414V35.5322L76.5854 40.342L78.0283 39.38L79.4713 37.4561L80.4332 35.0512L80.9142 34.0892L81.3952 32.6463ZM38.588 51.8855C38.588 51.8855 27.5255 56.2143 22.7157 59.1002L24.6396 64.8719L26.5635 63.429L28.9684 61.986L33.2972 60.0621L37.1451 58.6192L40.9929 57.6572L40.7524 56.2143V54.7713V53.3284L41.4739 52.3664L40.9929 51.8855C40.0309 51.4045 38.588 51.8855 38.588 51.8855ZM84.5744 23.6748C85.2054 24.3903 86.0085 25.5526 86.3589 26.2576C86.9752 27.4975 86.9959 27.6075 86.9959 29.6475C86.9959 30.956 86.9184 31.8361 86.7915 31.9673C86.6403 32.1237 86.356 31.9035 85.6994 31.1213C84.6716 29.8967 82.4248 28.1163 82.2586 28.3945C82.1967 28.4979 82.3835 28.9832 82.6734 29.4728C83.6772 31.1668 83.7286 31.5968 83.1483 33.4448C82.8352 34.4418 81.4295 36.3418 80.7777 36.6488C80.1707 36.9349 80.069 36.816 80.4312 36.2441C80.5906 35.9924 80.9725 35.0745 81.2795 34.2042C81.8285 32.6487 81.8347 32.5924 81.6412 30.8956C81.5331 29.9461 81.4424 28.6754 81.4401 28.0719C81.4377 27.4682 81.364 26.6551 81.2765 26.2649C81.1392 25.6531 81.1669 25.5279 81.4783 25.3557C82.0111 25.0607 82.3545 24.0323 82.3545 22.7321V21.5838L82.8907 21.9787C83.1858 22.1958 83.9433 22.9591 84.5744 23.6748ZM71.8842 22.634C73.0766 23.005 73.8091 23.6517 74.9745 25.3619C76.1904 27.1465 76.4155 27.6705 76.8684 29.7729C77.1709 31.1766 77.1953 31.7406 77.0631 34.2592C76.8757 37.8338 76.461 39.5885 75.3185 41.6415C73.8609 44.2607 71.7927 46.1908 68.446 48.0549C66.5586 49.106 64.9928 49.5684 62.3311 49.8605C60.2856 50.0849 59.8403 50.0186 55.7265 48.8767C54.347 48.4938 54.2959 48.4586 53.879 47.6115C53.6433 47.1324 52.6027 45.7778 51.5665 44.6013C50.5305 43.4247 49.5835 42.3229 49.4622 42.1528C49.1677 41.739 53.6371 43.2305 54.6253 43.8758C56.9016 45.3618 59.1633 45.9723 63.1518 46.1771C65.383 46.2915 65.6378 46.2667 67.6176 45.7426C68.7723 45.4367 70.2179 44.9251 70.83 44.6056C71.7674 44.1162 72.075 43.8187 72.7818 42.7194C74.5206 40.0143 75.0291 38.0853 74.8187 34.9915C74.7086 33.3697 74.6074 32.9925 73.7803 31.12C73.0923 29.5622 72.6291 28.7963 71.9212 28.0463C69.9638 25.9726 67.2587 25.3086 65.5697 26.4874C64.5148 27.2238 64.2723 27.5326 63.7097 28.8569L63.2297 29.9864L63.2969 28.439C63.3544 27.113 63.4606 26.6898 64.039 25.4792C64.579 24.3491 64.9219 23.9018 65.7532 23.2433C66.3246 22.7904 66.915 22.3656 67.0652 22.2989C67.5 22.1063 70.962 22.3469 71.8842 22.634ZM37.8431 28.3121C38.1481 28.7371 38.9195 29.8597 39.5573 30.8064L40.7169 32.5277L46.0189 32.5377C49.3539 32.5439 51.8357 32.635 52.7089 32.7831C54.134 33.0248 55.1297 33.5107 55.0033 33.9026C54.964 34.0244 54.4062 34.2191 53.7635 34.335C53.1208 34.451 51.2844 35.011 49.6827 35.5795C48.0809 36.148 45.971 36.7608 44.9937 36.9413L43.2173 37.2694L42.6259 36.7339C41.9508 36.1226 41.1119 35.5716 38.0336 33.7182C35.5506 32.2231 34.5466 31.9469 33.4896 32.4684C33.0963 32.6623 32.7898 32.9889 32.6714 33.34C32.565 33.6559 32.4821 35.5381 32.4821 37.6414V41.3813L31.8906 41.6341C30.9268 42.0458 29.5936 42.505 27.6662 43.0889L25.8535 43.6378L24.3324 43.3255C22.6782 42.9857 22.6684 42.8809 24.2459 42.3956C25.0533 42.1471 25.2015 42.0317 25.2015 41.6509C25.2015 40.9734 24.6653 40.7699 23.4303 40.9788C22.8528 41.0765 22.2519 41.2089 22.095 41.2729C21.8535 41.3713 21.7472 40.9489 21.3999 38.5115C20.7965 34.2739 20.936 33.868 24.1507 30.504C24.9671 29.65 25.767 28.951 25.9285 28.951C26.2743 28.951 29.8842 31.3596 30.3365 31.8922C30.8573 32.5053 31.3627 33.8838 31.591 35.3132C31.7433 36.2678 31.8853 36.6691 32.0708 36.6691C32.5721 36.6691 31.969 33.6333 31.1735 32.1512C30.7696 31.3991 29.9771 30.741 27.6846 29.2541C26.1746 28.2748 26.0994 28.1965 26.5015 28.0209C26.9489 27.8253 33.3269 27.4821 35.8409 27.5182L37.2885 27.5391L37.8431 28.3121ZM24.4274 29.3382C24.0561 29.6548 23.1041 30.7168 22.312 31.6983C21.0028 33.3206 20.8517 33.5928 20.6513 34.6914C20.4684 35.6938 20.4791 36.1983 20.7139 37.6493C20.8697 38.6115 21.049 39.907 21.1123 40.5282L21.2277 41.6577L20.4371 41.9871C20.002 42.1682 19.353 42.3165 18.9948 42.3165C18.2379 42.3165 18.1615 42.1923 17.5648 39.9928C17.3486 39.196 17.0144 38.1856 16.8222 37.7478C16.63 37.3097 16.4709 36.7519 16.4687 36.508C16.4638 35.9666 17.1205 35.1332 18.2536 34.243C18.7214 33.8755 20.1688 32.6497 21.4702 31.5189C23.5908 29.6763 24.7627 28.7656 25.0155 28.7635C25.0634 28.7631 24.7987 29.0218 24.4274 29.3382ZM85.4153 31.5642L86.3423 32.6666L86.5571 34.7885C86.8228 37.4121 86.6892 40.323 86.1914 42.7619C85.7116 45.1127 85.2533 45.9743 84.1798 46.5444C83.7266 46.7851 82.712 47.3301 81.9255 47.7555C81.1388 48.181 79.8283 48.7354 79.0133 48.9876C76.939 49.6294 74.3458 50.3607 74.3458 50.304C74.3458 50.2779 75.0932 49.7688 76.0065 49.1729C77.929 47.9182 79.4117 46.5532 80.8871 44.6794C82.5977 42.507 83.1954 41.4048 83.9042 39.1163C84.5207 37.1264 84.5671 36.8222 84.4803 35.3514C84.3394 32.9699 84.009 31.04 83.6004 30.2117L83.2369 29.4749L83.8625 29.9683C84.2067 30.2397 84.9053 30.9579 85.4153 31.5642ZM38.5507 34.6696C42.8603 37.2363 44.0254 38.5196 46.0507 42.93C47.495 46.0756 46.9299 49.5667 44.6763 51.4194C43.6818 52.2369 43.6155 52.7428 44.5389 52.4689C45.8385 52.0833 48.7131 49.7291 49.3974 48.4897L49.9104 47.5611L50.297 48.2083C50.5922 48.7024 50.6838 49.1589 50.6838 50.1378C50.6838 51.4158 50.681 51.4228 49.8623 52.2113C49.4104 52.6466 48.4481 53.3301 47.7236 53.7305L46.4064 54.4585L48.0114 54.513L49.6162 54.5676L49.8598 55.1719C50.11 55.7927 50.2143 56.5489 50.1639 57.3763L50.1353 57.8469L49.7822 57.2931C49.2888 56.5188 48.2302 55.9089 47.1454 55.7735C45.9129 55.6199 43.843 56.093 42.6175 56.8083C42.0824 57.1206 41.5897 57.3763 41.5227 57.3763C41.4557 57.3763 41.4009 56.5407 41.4009 55.5192C41.4009 53.8963 41.451 53.5963 41.7975 53.1405C42.1605 52.6633 42.1716 52.5775 41.9286 52.1296C41.5092 51.3571 40.9189 51.1366 39.4898 51.2193C38.6412 51.2682 37.9494 51.4341 37.4182 51.7155C36.9798 51.948 35.5786 52.5075 34.3045 52.9587C31.3946 53.9895 26.7552 56.0414 25.2015 56.9847C24.5508 57.3797 23.6149 57.8855 23.1216 58.1086C22.0938 58.5733 21.9325 58.4702 21.9279 57.3447C21.9258 56.7671 22.022 56.592 22.5168 56.2758C22.8422 56.0678 23.7177 55.7231 24.4623 55.5096C26.4336 54.9447 26.6141 54.5872 25.124 54.1992C24.1236 53.9387 23.1211 53.9293 22.3002 54.1729C21.9571 54.2745 21.6455 54.3259 21.6076 54.2868C21.4895 54.1646 21.3227 52.1054 21.431 52.1054C21.4875 52.1054 22.1724 52.3699 22.9529 52.6931C24.3475 53.2706 24.4088 53.2787 26.4705 53.1515C28.2514 53.0417 28.6702 52.9536 29.2386 52.5698C30.3274 51.8345 31.9361 49.1484 31.9361 48.0656C31.9361 47.2593 31.5118 46.1312 31.0695 45.7611C30.561 45.3354 28.965 44.5794 28.5688 44.5762C28.0033 44.5717 26.8396 44.1994 26.8396 44.0228C26.8396 43.9356 27.1469 43.8054 27.5222 43.7333C27.8977 43.6612 28.8191 43.3557 29.5699 43.0543C30.3207 42.7531 31.0524 42.5061 31.196 42.5057C31.3396 42.5052 31.8107 42.3278 32.2426 42.1115L33.0282 41.7183V37.7694C33.0282 33.6566 33.101 33.2059 33.8136 32.9012C34.6174 32.5574 35.6549 32.9448 38.5507 34.6696ZM83.9799 35.5901C83.9903 36.7809 83.87 37.4453 83.3323 39.1668C82.6427 41.3753 82.2433 42.104 80.5189 44.3029C76.0287 50.0283 70.3408 52.172 58.9546 52.4305L54.9393 52.5216L54.7227 51.7739C54.6035 51.3627 54.5061 50.6109 54.5061 50.103V49.1796L57.2818 49.8993C59.8271 50.5595 60.1935 50.6094 61.6957 50.5015C64.7194 50.2841 66.5654 49.7619 68.7943 48.4935C72.2807 46.5095 74.4962 44.4977 75.4641 42.437C75.7657 41.7951 76.2159 41.2975 77.0952 40.6338C77.7867 40.1122 78.6126 39.2667 79.0125 38.6711C79.5848 37.8193 79.8776 37.5678 80.5893 37.3169C81.2795 37.0737 81.6521 36.7653 82.3602 35.8506C82.8533 35.2138 83.3585 34.413 83.4827 34.0711C83.6703 33.5549 83.7304 33.5071 83.8378 33.7888C83.9089 33.9753 83.9728 34.7859 83.9799 35.5901ZM34.7725 34.6259C34.5852 35.2309 34.4652 39.6811 34.6363 39.6811C34.8855 39.6811 35.0651 38.4332 35.0848 36.5656L35.1015 34.992L36.1469 35.5683C36.724 35.8864 37.7127 36.7049 38.3538 37.3952C39.3507 38.4686 39.6119 38.9057 40.1991 40.4811C40.5753 41.4907 40.9586 42.3165 41.0511 42.3165C41.3329 42.3165 41.2464 41.9159 40.5837 40.1517C39.791 38.0414 38.4974 36.456 36.6647 35.3491C35.0839 34.3942 34.8697 34.3123 34.7725 34.6259ZM25.4328 35.71C23.522 36.6347 23.5663 38.7528 25.5142 39.6112C27.2295 40.367 29.5699 39.3021 29.5699 37.7657C29.5699 35.9415 27.2923 34.81 25.4328 35.71ZM28.2308 36.0357C29.4414 36.6298 29.6917 38.1292 28.7131 38.9251C27.5826 39.8448 25.9461 39.827 24.9072 38.8835C23.5129 37.6175 24.5981 35.7303 26.7212 35.7286C27.2066 35.7283 27.8859 35.8664 28.2308 36.0357ZM16.8288 42.489C17.079 42.5835 18.0619 42.7563 19.013 42.8734C21.4411 43.1719 25.0755 43.9659 26.4756 44.5036C27.1263 44.7536 28.1067 45.0427 28.6542 45.1463C29.7413 45.3516 30.9842 46.1257 31.2015 46.7324C31.6676 48.0345 31.6066 48.3777 30.5981 50.1252C29.2767 52.4148 28.8176 52.6709 26.0375 52.6682C24.3094 52.6667 23.8872 52.6033 23.1083 52.229C22.6078 51.9885 21.964 51.7313 21.6779 51.6573C21.1546 51.5224 4.69194 41.5359 3.58711 40.6831C3.26166 40.4322 2.99555 40.0745 2.99555 39.8885C2.99555 39.0683 3.56799 39.1384 10.0751 40.7537C13.5394 41.6138 16.5785 42.3946 16.8288 42.489ZM48.3694 42.9428C49.5631 45.7507 49.6018 45.9124 49.3336 46.9638C48.9693 48.3909 48.6093 48.9488 47.4384 49.9002C46.8376 50.3882 46.2915 50.7876 46.2249 50.7876C46.1583 50.7876 46.265 50.5122 46.4621 50.1758C47.3671 48.6309 47.6304 46.2929 47.1253 44.2875C46.8813 43.3184 45.7469 40.9011 44.8933 39.5307C44.6887 39.2022 44.9763 39.3302 46.0895 40.063L47.5553 41.0278L48.3694 42.9428ZM24.549 41.5376C24.6023 41.6268 24.0543 41.8777 23.3311 42.0951C21.3779 42.6823 21.0654 42.7412 20.9476 42.5441C20.8162 42.3241 22.1648 41.774 23.336 41.5701L24.3262 41.3975C24.3954 41.3853 24.4956 41.4483 24.549 41.5376ZM51.6652 45.6317C53.4093 47.6635 53.9509 48.7642 53.9711 50.317C53.9791 50.9382 54.0489 51.614 54.1264 51.819C54.2396 52.1189 54.1018 52.3275 53.4187 52.89C52.4063 53.7237 51.3654 54.0289 49.7984 53.9511L48.6401 53.8937L49.6488 53.1407C50.8809 52.2213 51.2303 51.522 51.2282 49.9812C51.2267 49.0185 51.1262 48.6303 50.661 47.7913C50.3457 47.2228 50.072 46.4318 50.0421 46.003C50.0127 45.5804 49.7369 44.599 49.4295 43.8225L48.8705 42.4107L49.5496 43.1845C49.9231 43.6102 50.8751 44.7114 51.6652 45.6317ZM91.0392 46.9139C91.7915 48.4494 92.764 51.205 92.6049 51.3507C91.9673 51.9354 87.244 55.4938 87.1055 55.4938C86.4828 55.4938 83.558 50.3172 83.2588 48.6853C83.1609 48.1514 83.1017 47.7028 83.1272 47.6882C83.1527 47.6737 83.3784 47.5321 83.6286 47.3736C85.1423 46.4148 87.6135 45.4207 88.7251 45.3234C90.0871 45.204 90.2595 45.3226 91.0392 46.9139ZM82.8824 49.2263C82.9102 49.8643 85.1308 53.9698 85.997 54.9846C86.4206 55.481 86.7367 55.9134 86.6996 55.9454C86.6623 55.9774 82.168 59.4592 76.712 63.6825C71.2561 67.9059 66.7603 71.3892 66.7214 71.4231C66.6824 71.4568 66.7882 72.4398 66.9565 73.6075L67.4468 77.8471C67.4468 77.8471 67.6431 78.5352 67.6853 78.7423C68.3133 81.8224 68.1276 83.7666 68.1276 83.7666L67.6402 84.4923L66.6738 85.6459C63.4673 89.4739 58.7158 92.3049 53.596 93.4374C51.6981 93.8572 48.0343 93.9941 46.0423 93.7194C40.7648 92.9918 36.2661 90.779 32.5641 87.0897L31.2808 85.811L31.2486 83.1699L31.2164 80.5288L32.4738 80.6496C36.8571 81.0711 42.2249 79.1544 43.4142 76.7431C43.8547 75.8501 43.8875 75.3102 43.6985 72.0381L43.5505 69.4751L46.3436 67.471C47.8798 66.3688 49.5775 65.0607 50.116 64.5639L51.0956 63.6607L51.2305 62.0742C51.3689 60.4458 51.2021 59.5355 50.5878 58.5658C50.4238 58.307 50.392 58.1054 50.5037 58.0338C50.7738 57.8612 50.7203 56.4015 50.4107 55.4938C50.2606 55.0537 50.1377 54.6734 50.1377 54.649C50.1377 54.6245 50.6064 54.5475 51.179 54.4778C52.1959 54.3542 53.4786 53.7405 53.9513 53.1516C54.3004 52.7164 54.5718 52.7923 54.9336 53.4257C55.112 53.7378 55.584 54.383 55.9828 54.8594C56.3816 55.3361 57.1158 56.3513 57.6146 57.1157C58.4567 58.4064 58.8745 58.7992 58.8745 58.3002C58.8745 58.1872 58.7061 57.8695 58.5004 57.5943C57.28 55.962 56.3217 54.4946 56.4138 54.3993C56.4722 54.3389 57.7665 54.3843 59.2898 54.5004C63.8111 54.8449 65.4713 54.568 69.6134 52.7793C72.4086 51.5723 74.9965 50.6474 78.0023 49.7818C79.2626 49.4189 80.8189 48.8762 81.4606 48.5759C82.6126 48.0366 82.629 48.0347 82.7459 48.4204C82.811 48.6352 82.8724 48.998 82.8824 49.2263ZM34.3933 48.6936C32.4843 49.6393 30.2366 52.1189 30.542 52.9421C30.7197 53.421 31.2537 53.2793 32.1465 52.5163C33.0708 51.7264 35.0761 50.5922 36.2135 50.2161C37.1454 49.9078 38.1195 49.2581 38.1225 48.9426C38.1255 48.6055 37.0078 48.1522 36.1738 48.1524C35.7905 48.1524 35.0014 48.3924 34.3933 48.6936ZM71.4185 51.4279C71.3768 51.4693 70.3597 51.9286 69.1584 52.4485C65.4618 54.0484 65.2361 54.0887 60.2685 54.0347C56.0188 53.9884 55.9222 53.9786 55.5878 53.5641C55.4 53.3312 55.244 53.0984 55.2411 53.0466C55.2383 52.9948 56.8532 52.9446 58.8299 52.935C61.6559 52.921 63.2156 52.807 66.1295 52.4002C68.1677 52.1159 70.1334 51.7697 70.4978 51.631C71.1689 51.3757 71.5568 51.2901 71.4185 51.4279ZM48.5695 56.7204C49.0993 57.0794 50.1932 58.716 50.6388 59.8158C50.8359 60.3026 50.8716 60.8496 50.7806 61.9814L50.6585 63.4958L49.4426 64.5496C48.7737 65.1292 47.4218 66.1774 46.4382 66.8792C46.3863 66.9162 46.3357 66.9524 46.2864 66.9876C45.3598 67.6497 44.8804 67.9922 44.4395 67.9482C43.967 67.9011 43.5387 67.41 42.6514 66.3926C42.6072 66.3419 42.5619 66.29 42.5154 66.2367C40.52 63.9512 39.8127 62.0488 40.0686 59.6561L40.1816 58.5999L42.111 57.6097C43.1719 57.0651 44.4087 56.5399 44.8592 56.4428C46.0888 56.1773 47.9766 56.3187 48.5695 56.7204ZM39.6834 60.6245C39.6942 62.3759 39.7468 62.6655 40.2568 63.7767C40.8512 65.0718 42.6892 67.3872 43.5924 67.9787C43.8887 68.1728 44.1273 68.3868 44.1228 68.4542C44.1093 68.6532 41.9423 70.2708 40.8201 70.9195C40.2504 71.2488 38.8989 71.9249 37.8169 72.4221C35.8651 73.3187 30.4474 76.4773 29.4913 77.2759C29.2175 77.5046 29.0477 77.7828 29.1141 77.8939C29.1897 78.0204 29.47 77.8826 29.8626 77.5262C30.2077 77.2128 30.836 76.7749 31.2586 76.5536C31.6813 76.332 32.9809 75.5685 34.1465 74.8567C35.3121 74.1449 36.7455 73.3445 37.3318 73.0781C38.8818 72.3739 41.9599 70.7505 42.5211 70.3412C42.7868 70.1473 43.0409 69.9888 43.0857 69.9888C43.1304 69.9888 43.2242 71.255 43.2937 72.8024C43.4377 75.9977 43.2999 76.5359 42.0462 77.6742C40.1002 79.4413 35.4974 80.6103 32.2144 80.1713C31.4106 80.0638 29.5653 79.9823 28.1138 79.9904C26.5903 79.9989 25.0897 79.907 24.5644 79.7735C23.2683 79.4439 21.2812 78.1198 19.98 76.7181C19.0373 75.7029 18.8428 75.3763 18.7341 74.6257C18.5801 73.5644 18.7321 72.4277 19.1362 71.6162C19.5099 70.8659 21.4207 68.4364 22.0213 67.9477C22.2716 67.744 23.0692 67.0055 23.7934 66.3065C25.5224 64.6385 26.4987 64.0086 30.2069 62.1698C34.6061 59.9884 37.3634 58.9626 39.4898 58.717C39.5999 58.7042 39.6763 59.4574 39.6834 60.6245ZM76.7716 61.1455C76.3797 61.8319 75.4255 62.1606 74.5657 61.9055C73.8451 61.6916 73.5794 62.0051 74.2557 62.2711C74.7879 62.4804 75.4811 62.4876 76.164 62.291C76.5773 62.1721 77.4401 61.1213 77.4401 60.7369C77.4401 60.3865 77.079 60.6073 76.7716 61.1455Z" fill="white" fill-opacity="0.7"/>
</g>
<defs>
<filter id="filter0_b_0_1534" x="-10.0704" y="-10.0704" width="117.141" height="117.141" filterUnits="userSpaceOnUse" color-interpolation-filters="sRGB">
<feFlood flood-opacity="0" result="BackgroundImageFix"/>
<feGaussianBlur in="BackgroundImage" stdDeviation="5"/>
<feComposite in2="SourceAlpha" operator="in" result="effect1_backgroundBlur_0_1534"/>
<feBlend mode="normal" in="SourceGraphic" in2="effect1_backgroundBlur_0_1534" result="shape"/>
</filter>
</defs>
</svg>
