<svg width="27" height="27" viewBox="0 0 27 27" fill="none" xmlns="http://www.w3.org/2000/svg">
<g clip-path="url(#clip0_0_159)">
<path d="M13.3976 2.53158C14.31 2.53145 15.1895 2.87241 15.8634 3.48752C16.5373 4.10262 16.9569 4.94742 17.0399 5.85606H22.7061C22.9588 5.85614 23.2021 5.95213 23.3867 6.12464C23.5713 6.29715 23.6836 6.53332 23.7008 6.78542C23.7181 7.03753 23.639 7.28677 23.4795 7.48279C23.32 7.67881 23.0921 7.80699 22.8418 7.84143L22.7061 7.85074H21.9309L20.246 22.4518C20.171 23.1 19.8603 23.6979 19.3731 24.1319C18.8859 24.5659 18.2562 24.8057 17.6037 24.8056H9.19146C8.539 24.8057 7.90927 24.5659 7.42207 24.1319C6.93487 23.6979 6.6242 23.1 6.54917 22.4518L4.863 7.85074H4.08906C3.84805 7.85073 3.6152 7.76345 3.43357 7.60504C3.25193 7.44663 3.1338 7.22781 3.10103 6.98904L3.09172 6.8534C3.09173 6.61239 3.17901 6.37954 3.33742 6.19791C3.49583 6.01627 3.71465 5.89814 3.95342 5.86537L4.08906 5.85606H9.7553C9.83824 4.94742 10.2579 4.10262 10.9318 3.48752C11.6057 2.87241 12.4852 2.53145 13.3976 2.53158V2.53158ZM11.4029 10.8428C11.0771 10.8428 10.8045 11.0489 10.7486 11.3202L10.738 11.4252V19.5702L10.7486 19.6739C10.8045 19.9452 11.0771 20.1513 11.4029 20.1513C11.7287 20.1513 12.0013 19.9452 12.0572 19.6739L12.0678 19.5689V11.4265L12.0572 11.3202C12.0013 11.0502 11.7287 10.8428 11.4029 10.8428ZM15.3923 10.8428C15.0665 10.8428 14.7939 11.0489 14.738 11.3202L14.7274 11.4252V19.5702L14.738 19.6739C14.7939 19.9452 15.0665 20.1513 15.3923 20.1513C15.7181 20.1513 15.9907 19.9452 16.0465 19.6739L16.0572 19.5689V11.4265L16.0465 11.3202C15.9907 11.0502 15.7181 10.8441 15.3923 10.8441V10.8428ZM13.3976 4.52627C12.5931 4.52627 11.9215 5.09808 11.7686 5.85606H15.0266C14.8723 5.09808 14.2021 4.52627 13.3976 4.52627V4.52627Z" fill="white"/>
</g>
<defs>
<clipPath id="clip0_0_159">
<rect width="26.199" height="26.199" fill="white" transform="scale(1.03057)"/>
</clipPath>
</defs>
</svg>
