<svg width="27" height="27" viewBox="0 0 27 27" fill="none" xmlns="http://www.w3.org/2000/svg">
<g clip-path="url(#clip0_0_141)">
<path d="M18.7542 14.7708C20.2955 15.817 21.3755 17.2345 21.3755 19.1245V22.4995H25.8755V19.1245C25.8755 16.672 21.8592 15.2208 18.7542 14.7708Z" fill="white"/>
<path d="M16.8756 13.4994C19.3618 13.4994 21.3756 11.4857 21.3756 8.99944C21.3756 6.51319 19.3618 4.49944 16.8756 4.49944C16.3468 4.49944 15.8518 4.61194 15.3793 4.76944C16.3131 5.92819 16.8756 7.40194 16.8756 8.99944C16.8756 10.5969 16.3131 12.0707 15.3793 13.2294C15.8518 13.3869 16.3468 13.4994 16.8756 13.4994Z" fill="white"/>
<path d="M10.1251 13.4994C12.6114 13.4994 14.6251 11.4857 14.6251 8.99944C14.6251 6.51319 12.6114 4.49944 10.1251 4.49944C7.63887 4.49944 5.62512 6.51319 5.62512 8.99944C5.62512 11.4857 7.63887 13.4994 10.1251 13.4994ZM10.1251 6.74944C11.3626 6.74944 12.3751 7.76194 12.3751 8.99944C12.3751 10.2369 11.3626 11.2494 10.1251 11.2494C8.88762 11.2494 7.87512 10.2369 7.87512 8.99944C7.87512 7.76194 8.88762 6.74944 10.1251 6.74944Z" fill="white"/>
<path d="M10.1253 14.625C7.12155 14.625 1.1253 16.1325 1.1253 19.125V22.4999H19.1253V19.125C19.1253 16.1325 13.129 14.625 10.1253 14.625ZM16.8753 20.2499H3.3753V19.1362C3.6003 18.3262 7.0878 16.875 10.1253 16.875C13.1628 16.875 16.6503 18.3262 16.8753 19.125V20.2499Z" fill="white"/>
</g>
<defs>
<clipPath id="clip0_0_141">
<rect width="26.199" height="26.199" fill="white" transform="scale(1.03057)"/>
</clipPath>
</defs>
</svg>
