<svg width="11" height="11" viewBox="0 0 11 11" fill="none" xmlns="http://www.w3.org/2000/svg">
<path fill-rule="evenodd" clip-rule="evenodd" d="M4.86636 0.0132255C4.14718 0.0652881 3.51659 0.188473 3.18632 0.341441C2.92183 0.463924 2.70372 0.674123 2.57827 0.927399C2.39325 1.30093 2.40091 1.1572 2.4546 3.25363C2.47299 3.97144 2.48281 4.56381 2.47639 4.56999C2.47 4.57617 2.38015 4.59404 2.27676 4.6097C2.17337 4.62535 2.01283 4.67217 1.91999 4.71372C1.73791 4.79522 1.49048 5.00231 1.40125 5.14793L1.34583 5.23837L1.48808 5.11801C1.74616 4.89971 2.01448 4.81345 2.30496 4.85539C2.55624 4.89169 2.77033 5.20272 2.99257 5.85439C3.05286 6.03123 3.12902 6.30844 3.16181 6.4704L3.22138 6.76485L5.50445 6.76504L7.78752 6.76522L7.80534 6.65486C7.8363 6.46305 8.00107 5.87802 8.08828 5.6503C8.20459 5.34657 8.34902 5.09085 8.45481 5.00142C8.56079 4.91181 8.793 4.85731 8.95979 4.88289C9.12893 4.90883 9.32401 5.00176 9.5015 5.14097L9.65985 5.26514L9.57623 5.14811C9.36219 4.84859 8.97063 4.6388 8.62149 4.6366C8.52274 4.636 8.52037 4.63369 8.52037 4.5386C8.52037 4.48506 8.53922 3.76807 8.56227 2.94533C8.60912 1.27496 8.60941 1.27979 8.43321 0.930852C8.16826 0.406123 7.70195 0.188499 6.55349 0.0535773C6.14178 0.00520188 5.2663 -0.015753 4.86636 0.0132255ZM0.534994 6.28019C0.281506 6.37146 0.110563 6.54219 0.0383995 6.77623C-0.00836104 6.92779 -0.0133499 7.26354 0.0285836 7.43533C0.0729441 7.61707 0.301704 8.05352 0.453177 8.2453C0.739053 8.60735 1.3025 9.07667 1.79672 9.3644L2.01707 9.49268L1.82083 9.88817C1.63195 10.2688 1.62117 10.2842 1.53309 10.2983C1.40193 10.3193 1.32483 10.366 1.26493 10.4606C1.1551 10.6341 1.23311 10.8591 1.43636 10.955C1.56979 11.018 1.69945 10.9948 1.82293 10.8858C1.93166 10.7899 1.96915 10.6337 1.91416 10.5059C1.88188 10.4309 1.88914 10.4177 2.15538 10.064C2.30637 9.86348 2.44417 9.69955 2.46159 9.69971C2.47901 9.69986 2.54982 9.71651 2.61894 9.73671C2.72373 9.76732 3.20242 9.77343 5.50175 9.77343C8.14138 9.77343 8.26588 9.77132 8.42331 9.72378C8.51379 9.69646 8.60076 9.67398 8.61664 9.67379C8.6325 9.67361 8.76329 9.83684 8.90723 10.0365L9.16898 10.3996L9.1255 10.5276C9.08419 10.6492 9.0847 10.6614 9.13575 10.7725C9.16531 10.8369 9.21967 10.9085 9.25659 10.9318C9.56312 11.1252 9.92248 10.8256 9.77805 10.4971C9.72883 10.3851 9.65737 10.3281 9.53578 10.3038C9.43584 10.2837 9.43279 10.2794 9.24723 9.88596C9.14408 9.66728 9.05971 9.47912 9.05971 9.46783C9.05971 9.45653 9.15374 9.39144 9.2687 9.32317C9.73633 9.04546 10.2715 8.59414 10.547 8.2453C10.7109 8.03768 10.9322 7.60741 10.9758 7.41142C11.0238 7.19584 10.9976 6.8327 10.9233 6.68361C10.716 6.26744 10.1609 6.12115 9.75898 6.37673C9.44703 6.57512 9.16458 6.92992 8.70703 7.69824C8.42663 8.16907 8.23212 8.39196 8.02434 8.48046C7.90377 8.53182 7.85059 8.53293 5.50008 8.53293C3.14957 8.53293 3.09639 8.53182 2.97582 8.48046C2.76313 8.38986 2.57399 8.17083 2.27832 7.67267C1.78992 6.84982 1.50693 6.5041 1.18641 6.33864C1.01163 6.24843 0.700652 6.22052 0.534994 6.28019Z" fill="white"/>
</svg>
