<svg width="47" height="18" viewBox="0 0 47 18" fill="none" xmlns="http://www.w3.org/2000/svg">
<path d="M11.6507 12.281V11.2599L10.6298 11.2812C6.15853 11.3744 3.76188 12.2219 2.43743 13.3567C1.62678 14.051 1.23364 14.8368 1.00664 15.5845C1.05968 13.6657 1.44094 11.4208 2.55598 9.50363C3.91496 7.16714 6.36766 5.30596 10.6964 5.10796L11.6507 5.0643V4.109V1.35294L16.952 8.18188L11.6507 15.0108V12.281ZM11.3217 0.929145L11.3218 0.929222L11.3217 0.929145ZM17.038 8.29274C17.038 8.2927 17.038 8.29267 17.0379 8.29263L17.038 8.29274ZM17.0379 8.07114C17.038 8.0711 17.038 8.07107 17.038 8.07103L17.0379 8.07114Z" stroke="white" stroke-width="2"/>
<rect x="43" width="3.6" height="3.6" rx="1.8" fill="white"/>
<rect x="43" y="7.19995" width="3.6" height="3.6" rx="1.8" fill="white"/>
<rect x="43" y="14.4" width="3.6" height="3.6" rx="1.8" fill="white"/>
</svg>
