<svg width="11" height="11" viewBox="0 0 11 11" fill="none" xmlns="http://www.w3.org/2000/svg">
<path d="M10.4501 1.09928H8.80005V0.549641C8.80005 0.403867 8.7421 0.264064 8.63896 0.160986C8.53581 0.0579085 8.39591 0 8.25004 0L2.75001 0C2.60415 0 2.46425 0.0579085 2.3611 0.160986C2.25796 0.264064 2.20001 0.403867 2.20001 0.549641V1.09928H0.550003C0.404133 1.09928 0.264238 1.15719 0.161092 1.26027C0.0579466 1.36335 0 1.50315 0 1.64892L0 3.29785C0 5.6668 0.990005 7.09587 2.65101 7.14534C2.89337 7.56414 3.22496 7.92453 3.62227 8.20094C4.01958 8.47736 4.47288 8.66303 4.95003 8.74479V9.89354H3.85002V10.9928H7.15004V9.89354H6.05003V8.74479C6.52718 8.66303 6.98048 8.47736 7.37779 8.20094C7.7751 7.92453 8.10669 7.56414 8.34905 7.14534C9.99905 7.09037 11.0001 5.66131 11.0001 3.29785V1.64892C11.0001 1.50315 10.9421 1.36335 10.839 1.26027C10.7358 1.15719 10.5959 1.09928 10.4501 1.09928V1.09928ZM1.10001 3.29785V2.19857H2.20001V5.95262C1.22101 5.54039 1.10001 4.01238 1.10001 3.29785ZM8.80005 5.95262V2.19857H9.90005V3.29785C9.90005 4.01238 9.77905 5.54039 8.80005 5.95262Z" fill="white"/>
</svg>
