<svg width="58" height="58" viewBox="0 0 58 58" fill="none" xmlns="http://www.w3.org/2000/svg">
<circle cx="29" cy="29" r="27.736" stroke="white" stroke-opacity="0.3" stroke-width="2.5"/>
<path d="M33.5171 32.7682C33.4898 32.4206 33.4715 32.0725 33.4624 31.7241C37.4425 31.3457 40.2358 30.4597 40.2358 29.4258C40.2249 29.4258 40.2265 29.3823 40.2265 29.3664C37.2504 26.8752 42.8059 9.18181 32.4647 9.53852C31.4797 8.85213 30.2653 8.5111 29.0358 8.5757H29.0483C15.0408 9.55882 21.235 26.2705 18.0419 29.4244H18.0356C18.0481 30.4365 20.7463 31.3065 24.6108 31.6951C24.5998 31.9416 24.5764 32.2476 24.5264 32.7595C22.9229 36.7761 12.0945 35.6509 11.5948 43.3781H46.405C45.9069 35.6494 35.1238 36.7746 33.5186 32.7682H33.5171Z" fill="white" fill-opacity="0.3"/>
</svg>
