<svg width="27" height="27" viewBox="0 0 27 27" fill="none" xmlns="http://www.w3.org/2000/svg">
<g clip-path="url(#clip0_0_150)">
<path d="M21.9365 11.4678H19.2864V8.41428C19.2864 4.7284 17.321 2.56165 13.3974 2.56165C9.47243 2.56165 7.50846 4.7284 7.50846 8.41428V11.4678H4.56396C3.74981 11.4678 3.09172 12.2897 3.09172 12.9933V22.9186C3.09172 23.6171 3.72184 24.3678 4.49182 24.5815L6.2541 25.0739C7.18883 25.3094 8.15466 25.4402 9.12793 25.4633H17.667C18.6399 25.4404 19.6053 25.3091 20.5393 25.0727L22.3001 24.5803C23.0716 24.3678 23.7032 23.6171 23.7032 22.9186V12.9933C23.7032 12.2897 22.7491 11.4678 21.9365 11.4678ZM16.3419 11.4678H10.4529V7.90408C10.4529 6.06559 11.6263 5.10627 13.3974 5.10627C15.1686 5.10627 16.3419 6.06559 16.3419 7.90408V11.4678Z" fill="white"/>
</g>
<defs>
<clipPath id="clip0_0_150">
<rect width="26.199" height="26.199" fill="white" transform="scale(1.03057)"/>
</clipPath>
</defs>
</svg>
