<svg width="221" height="623" viewBox="0 0 221 623" fill="none" xmlns="http://www.w3.org/2000/svg">
<path d="M219.158 610.35C219.393 610.35 219.62 610.426 219.797 610.563C219.973 610.7 220.088 610.889 220.12 611.095L220.129 611.213V611.788C220.13 613.747 219.296 615.634 217.795 617.069C216.294 618.505 214.237 619.384 212.037 619.53L212.036 622.138C212.036 622.356 211.942 622.567 211.774 622.726C211.606 622.886 211.376 622.983 211.131 622.998C210.885 623.013 210.643 622.944 210.452 622.807C210.261 622.669 210.136 622.472 210.103 622.255L210.093 622.138V619.53C207.946 619.388 205.933 618.547 204.44 617.169C202.947 615.79 202.08 613.97 202.005 612.059L202 611.788V611.213C202 610.994 202.094 610.784 202.262 610.624C202.43 610.464 202.66 610.367 202.905 610.352C203.151 610.337 203.393 610.406 203.584 610.544C203.775 610.682 203.9 610.879 203.933 611.095L203.942 611.213V611.788C203.942 613.346 204.621 614.844 205.836 615.968C207.051 617.093 208.708 617.756 210.461 617.821L210.741 617.825H211.388C213.143 617.825 214.83 617.223 216.096 616.144C217.362 615.065 218.11 613.593 218.182 612.036L218.187 611.788V611.213C218.187 610.984 218.289 610.764 218.471 610.603C218.654 610.441 218.901 610.35 219.158 610.35V610.35ZM211.065 600C212.438 600 213.756 600.485 214.727 601.347C215.699 602.21 216.245 603.38 216.245 604.6V611.5C216.245 612.72 215.699 613.89 214.727 614.753C213.756 615.616 212.438 616.1 211.065 616.1C209.691 616.1 208.373 615.616 207.402 614.753C206.431 613.89 205.885 612.72 205.885 611.5V604.6C205.885 603.38 206.431 602.21 207.402 601.347C208.373 600.485 209.691 600 211.065 600V600Z" fill="white"/>
</svg>
