<svg width="12" height="10" viewBox="0 0 12 10" fill="none" xmlns="http://www.w3.org/2000/svg">
<path d="M5.84087 2.59425L2.00015 5.98411V9.64276C2.00015 9.73749 2.03526 9.82834 2.09777 9.89532C2.16028 9.96231 2.24505 9.99994 2.33345 9.99994L4.66784 9.99346C4.75595 9.99299 4.8403 9.95515 4.90245 9.88822C4.96459 9.82128 4.99948 9.7307 4.99948 9.63628V7.49967C4.99948 7.40494 5.03459 7.31409 5.0971 7.24711C5.15961 7.18012 5.24439 7.14249 5.33278 7.14249H6.66601C6.7544 7.14249 6.83918 7.18012 6.90169 7.24711C6.9642 7.31409 6.99931 7.40494 6.99931 7.49967V9.63472C6.99917 9.68172 7.00769 9.72828 7.02438 9.77175C7.04107 9.81521 7.0656 9.85472 7.09657 9.88801C7.12753 9.92129 7.16432 9.9477 7.20483 9.96572C7.24533 9.98374 7.28876 9.99302 7.33262 9.99302L9.66617 9.99994C9.75457 9.99994 9.83935 9.96231 9.90186 9.89532C9.96436 9.82834 9.99948 9.73749 9.99948 9.64276V5.98166L6.15959 2.59425C6.11445 2.55525 6.05821 2.53399 6.00023 2.53399C5.94225 2.53399 5.88601 2.55525 5.84087 2.59425ZM11.9077 4.89828L10.1661 3.35995V0.267885C10.1661 0.196838 10.1398 0.1287 10.0929 0.0784618C10.046 0.0282236 9.98245 0 9.91615 0H8.74958C8.68328 0 8.6197 0.0282236 8.57282 0.0784618C8.52594 0.1287 8.4996 0.196838 8.4996 0.267885V1.88881L6.63455 0.244445C6.45557 0.0866116 6.23098 0.000315512 5.99919 0.000315512C5.7674 0.000315512 5.5428 0.0866116 5.36382 0.244445L0.0907213 4.89828C0.0654083 4.9207 0.0444658 4.94825 0.0290905 4.97935C0.0137151 5.01044 0.00420814 5.04448 0.00111286 5.07952C-0.00198243 5.11455 0.0013946 5.1499 0.011051 5.18354C0.0207074 5.21717 0.0364539 5.24844 0.0573908 5.27555L0.588596 5.96759C0.609476 5.9948 0.635159 6.01733 0.664173 6.03388C0.693188 6.05044 0.724965 6.0607 0.757685 6.06408C0.790405 6.06746 0.823426 6.06389 0.854858 6.05358C0.886289 6.04327 0.915514 6.02641 0.940859 6.00398L5.84087 1.67897C5.88601 1.63998 5.94225 1.61871 6.00023 1.61871C6.05821 1.61871 6.11445 1.63998 6.15959 1.67897L11.0598 6.00398C11.0851 6.02642 11.1143 6.04329 11.1457 6.05364C11.1771 6.06399 11.21 6.06761 11.2427 6.06429C11.2754 6.06097 11.3072 6.05078 11.3362 6.03431C11.3652 6.01783 11.3909 5.99539 11.4119 5.96826L11.9431 5.27622C11.964 5.24896 11.9797 5.21753 11.9892 5.18374C11.9987 5.14996 12.002 5.11449 11.9987 5.07936C11.9954 5.04424 11.9856 5.01017 11.97 4.97909C11.9544 4.94801 11.9332 4.92055 11.9077 4.89828Z" fill="white"/>
</svg>
