<svg width="19" height="17" viewBox="0 0 19 17" fill="none" xmlns="http://www.w3.org/2000/svg">
<path d="M14.2625 13.3202C15.4699 12.1845 16.4423 11.0643 17.1495 9.99013C17.5958 9.31138 17.9473 8.63922 18.1887 7.99123C18.4798 7.21583 18.6264 6.45361 18.6264 5.72215C18.6286 4.94675 18.4755 4.19332 18.1758 3.48382M14.2625 13.3202L13.9119 12.9471C13.9119 12.9472 13.9118 12.9472 13.9118 12.9473M14.2625 13.3202L13.9118 12.9473M14.2625 13.3202C12.2595 15.2027 10.2802 16.5008 10.1961 16.5558L9.68514 16.8896M13.9118 12.9473C15.0982 11.8313 16.0421 10.7412 16.7219 9.70862M13.9118 12.9473C11.9407 14.7997 9.99008 16.0789 9.91621 16.1271L9.91612 16.1272L9.40612 16.4604L9.68514 16.8896M16.7219 9.70862C16.7219 9.7087 16.7218 9.70878 16.7218 9.70887L17.1487 9.98963L16.7219 9.70862ZM16.7219 9.70862C17.1513 9.05555 17.4835 8.41773 17.709 7.81246L17.7095 7.81132C17.9817 7.08617 18.1145 6.38485 18.1145 5.72215V5.72072C18.1165 5.0147 17.9773 4.32947 17.7042 3.68302M17.7042 3.68302C17.7043 3.68322 17.7044 3.68342 17.7045 3.68362L18.1758 3.48382M17.7042 3.68302L18.1758 3.48382M17.7042 3.68302C17.4409 3.06197 17.0614 2.49979 16.5877 2.02767L16.5872 2.02726C16.1122 1.55282 15.5526 1.17628 14.939 0.917658L14.9384 0.917376C14.302 0.648055 13.6198 0.510332 12.9313 0.511946L12.9301 0.511949C11.9627 0.511948 11.0192 0.781725 10.199 1.29149L10.199 1.2915C10.0027 1.41347 9.81659 1.54724 9.6404 1.69283L9.3143 1.96231L8.98819 1.69283C8.812 1.54724 8.62586 1.41347 8.42959 1.2915L8.42958 1.29149C7.60938 0.781725 6.6659 0.511948 5.69854 0.511948C5.00096 0.511948 4.32717 0.647828 3.69022 0.917378L3.68966 0.917615C3.07387 1.17735 2.51881 1.55083 2.04119 2.02742L2.0405 2.02811L2.0405 2.02811C1.56623 2.49954 1.18687 3.06172 0.924365 3.68302L18.1758 3.48382M9.68514 16.8896L9.40512 16.4611L9.40577 16.4607C9.34925 16.4972 9.27729 16.4972 9.22075 16.4607L9.22131 16.4611L8.94129 16.8896M9.68514 16.8896C9.45875 17.0368 9.16768 17.0368 8.94129 16.8896M8.94129 16.8896L9.22031 16.4604M8.94129 16.8896L8.4303 16.5558C8.34621 16.503 6.36477 15.2027 4.36392 13.3202C3.15651 12.1845 2.18412 11.0643 1.47692 9.99013C1.03061 9.31138 0.681324 8.63922 0.437686 7.99123C0.146614 7.21583 0 6.45361 0 5.72215C0 4.94675 0.153082 4.19332 0.452778 3.48382L9.22031 16.4604M9.22031 16.4604L8.71032 16.1272L8.71037 16.1271L8.70223 16.122C8.70287 16.1224 8.70092 16.1212 8.69516 16.1175L8.67369 16.1035C8.6555 16.0915 8.63023 16.0748 8.59831 16.0534C8.53449 16.0107 8.4447 15.9498 8.3326 15.872C8.10837 15.7165 7.79545 15.4939 7.42306 15.2146C6.67751 14.6554 5.69752 13.872 4.71471 12.9473L4.71466 12.9473C3.52829 11.8314 2.58449 10.7414 1.90466 9.70887L9.22031 16.4604ZM0.511932 5.72215C0.511932 5.01517 0.651298 4.32949 0.924349 3.68305L1.90463 9.70881C1.47575 9.05656 1.14512 8.41814 0.916867 7.81106C0.644725 7.08601 0.511932 6.38478 0.511932 5.72215Z" fill="#9D9D9D" stroke="#7E7E7E"/>
</svg>
