<svg width="58" height="58" viewBox="0 0 58 58" fill="none" xmlns="http://www.w3.org/2000/svg">
<g filter="url(#filter0_d_0_173)">
<rect x="5" y="1" width="48" height="48" rx="13.6406" stroke="white" stroke-width="2"/>
</g>
<path d="M45.551 29.5759L42.9255 27.3257C43.0497 26.5623 43.1139 25.7828 43.1139 25.0033C43.1139 24.2237 43.0497 23.4442 42.9255 22.6808L45.551 20.4306C45.7491 20.2607 45.8908 20.0343 45.9574 19.7817C46.024 19.529 46.0123 19.2621 45.9238 19.0162L45.8878 18.9118C45.1649 16.8867 44.0826 15.0095 42.693 13.3708L42.6208 13.2864C42.4523 13.0877 42.2276 12.9449 41.9764 12.8767C41.7253 12.8086 41.4594 12.8183 41.2139 12.9047L37.955 14.0659C36.7524 13.0774 35.4096 12.2979 33.9585 11.7514L33.3292 8.33603C33.2817 8.07904 33.1573 7.84261 32.9726 7.65816C32.7879 7.47371 32.5515 7.34997 32.295 7.30337L32.1867 7.28328C30.0983 6.90557 27.9017 6.90557 25.8133 7.28328L25.705 7.30337C25.4485 7.34997 25.2121 7.47371 25.0274 7.65816C24.8427 7.84261 24.7183 8.07904 24.6708 8.33603L24.0375 11.7675C22.598 12.3141 21.2575 13.0932 20.0691 14.0739L16.7861 12.9047C16.5407 12.8176 16.2746 12.8075 16.0233 12.8757C15.772 12.9439 15.5473 13.0871 15.3792 13.2864L15.307 13.3708C13.9191 15.0107 12.8369 16.8876 12.1122 18.9118L12.0762 19.0162C11.8958 19.5185 12.0441 20.081 12.449 20.4306L15.1066 22.7049C14.9823 23.4603 14.9222 24.2318 14.9222 24.9992C14.9222 25.7707 14.9823 26.5422 15.1066 27.2936L12.449 29.5679C12.2509 29.7378 12.1092 29.9641 12.0426 30.2168C11.976 30.4694 11.9877 30.7364 12.0762 30.9822L12.1122 31.0867C12.8378 33.1119 13.9121 34.9803 15.307 36.6277L15.3792 36.7121C15.5477 36.9108 15.7724 37.0536 16.0236 37.1218C16.2747 37.1899 16.5406 37.1802 16.7861 37.0938L20.0691 35.9246C21.2636 36.909 22.5984 37.6885 24.0375 38.231L24.6708 41.6625C24.7183 41.9194 24.8427 42.1559 25.0274 42.3403C25.2121 42.5248 25.4485 42.6485 25.705 42.6951L25.8133 42.7152C27.9209 43.0949 30.0791 43.0949 32.1867 42.7152L32.295 42.6951C32.5515 42.6485 32.7879 42.5248 32.9726 42.3403C33.1573 42.1559 33.2817 41.9194 33.3292 41.6625L33.9585 38.247C35.409 37.702 36.7594 36.9199 37.955 35.9326L41.2139 37.0938C41.4593 37.1809 41.7254 37.1909 41.9767 37.1228C42.228 37.0546 42.4527 36.9114 42.6208 36.7121L42.693 36.6277C44.0879 34.9763 45.1622 33.1119 45.8878 31.0867L45.9238 30.9822C46.1042 30.488 45.9559 29.9255 45.551 29.5759V29.5759ZM40.0795 23.1549C40.1797 23.7617 40.2318 24.3845 40.2318 25.0073C40.2318 25.6301 40.1797 26.2529 40.0795 26.8596L39.8149 28.4709L42.8092 31.0385C42.3553 32.0868 41.7823 33.0791 41.1016 33.9958L37.3817 32.6739L36.1231 33.7106C35.1651 34.4981 34.0988 35.1169 32.9444 35.5509L31.4171 36.1255L30.6996 40.0231C29.5675 40.1516 28.4245 40.1516 27.2924 40.0231L26.5749 36.1174L25.0597 35.5348C23.9172 35.1008 22.855 34.482 21.905 33.6985L20.6463 32.6578L16.9024 33.9918C16.2209 33.0717 15.6517 32.0792 15.1948 31.0345L18.2212 28.4428L17.9606 26.8355C17.8644 26.2368 17.8123 25.618 17.8123 25.0073C17.8123 24.3925 17.8604 23.7777 17.9606 23.179L18.2212 21.5718L15.1948 18.9801C15.6477 17.9313 16.2209 16.9429 16.9024 16.0227L20.6463 17.3567L21.905 16.316C22.855 15.5325 23.9172 14.9137 25.0597 14.4798L26.5789 13.9052L27.2964 9.99954C28.4228 9.87096 29.5732 9.87096 30.7036 9.99954L31.4211 13.8971L32.9484 14.4717C34.0988 14.9057 35.1691 15.5245 36.1271 16.312L37.3858 17.3487L41.1056 16.0267C41.7871 16.9469 42.3563 17.9394 42.8132 18.9841L39.8189 21.5517L40.0795 23.1549ZM29.004 17.5335C25.1078 17.5335 21.9491 20.6998 21.9491 24.6055C21.9491 28.5111 25.1078 31.6774 29.004 31.6774C32.9003 31.6774 36.0589 28.5111 36.0589 24.6055C36.0589 20.6998 32.9003 17.5335 29.004 17.5335ZM32.1787 27.7878C31.7623 28.2064 31.2675 28.5384 30.7226 28.7645C30.1778 28.9907 29.5937 29.1067 29.004 29.1058C27.8055 29.1058 26.6791 28.6357 25.8293 27.7878C25.4117 27.3704 25.0806 26.8744 24.8549 26.3282C24.6293 25.7821 24.5136 25.1966 24.5145 24.6055C24.5145 23.404 24.9835 22.2749 25.8293 21.4231C26.6791 20.5713 27.8055 20.1052 29.004 20.1052C30.2025 20.1052 31.3289 20.5713 32.1787 21.4231C32.5963 21.8405 32.9275 22.3365 33.1531 22.8827C33.3787 23.4288 33.4944 24.0143 33.4935 24.6055C33.4935 25.8069 33.0245 26.936 32.1787 27.7878Z" fill="white"/>
<defs>
<filter id="filter0_d_0_173" x="0" y="0" width="58" height="58" filterUnits="userSpaceOnUse" color-interpolation-filters="sRGB">
<feFlood flood-opacity="0" result="BackgroundImageFix"/>
<feColorMatrix in="SourceAlpha" type="matrix" values="0 0 0 0 0 0 0 0 0 0 0 0 0 0 0 0 0 0 127 0" result="hardAlpha"/>
<feOffset dy="4"/>
<feGaussianBlur stdDeviation="2"/>
<feComposite in2="hardAlpha" operator="out"/>
<feColorMatrix type="matrix" values="0 0 0 0 0 0 0 0 0 0 0 0 0 0 0 0 0 0 0.15 0"/>
<feBlend mode="normal" in2="BackgroundImageFix" result="effect1_dropShadow_0_173"/>
<feBlend mode="normal" in="SourceGraphic" in2="effect1_dropShadow_0_173" result="shape"/>
</filter>
</defs>
</svg>
