<svg width="58" height="18" viewBox="0 0 58 18" fill="none" xmlns="http://www.w3.org/2000/svg">
<path d="M13.7017 4.59207C14.0459 4.24491 14.2354 3.78387 14.2354 3.29343C14.2354 2.803 14.0459 2.34196 13.7017 1.9948L12.2573 0.538191C11.9131 0.19103 11.4559 0 10.9696 0C10.4832 0 10.0261 0.19103 9.68271 0.537272L0 10.2715V14.3263H4.01898L13.7017 4.59207ZM10.9696 1.83683L12.4149 3.29252L10.9668 4.74728L9.52243 3.2916L10.9696 1.83683ZM1.82143 12.4895V11.0338L8.23286 4.5884L9.67725 6.045L3.26673 12.4895H1.82143ZM0 16.1632H14.5714V18H0V16.1632Z" fill="white"/>
<path d="M51.2222 12.281V11.2599L50.2014 11.2812C45.7301 11.3744 43.3334 12.2219 42.009 13.3567C41.1983 14.051 40.8052 14.8368 40.5782 15.5845C40.6312 13.6657 41.0125 11.4208 42.1275 9.50363C43.4865 7.16714 45.9392 5.30596 50.2679 5.10796L51.2222 5.0643V4.109V1.35294L56.5235 8.18188L51.2222 15.0108V12.281ZM50.8932 0.929145L50.8933 0.929222L50.8932 0.929145ZM56.6096 8.29274C56.6095 8.2927 56.6095 8.29267 56.6095 8.29263L56.6096 8.29274ZM56.6095 8.07114C56.6095 8.0711 56.6095 8.07107 56.6096 8.07103L56.6095 8.07114Z" stroke="white" stroke-width="2"/>
</svg>
