<svg width="16" height="17" viewBox="0 0 16 17" fill="none" xmlns="http://www.w3.org/2000/svg">
<path d="M7.86567 2.76988e-08C8.56205 -9.80243e-05 9.2333 0.26013 9.74764 0.729589C10.262 1.19905 10.5822 1.84382 10.6456 2.53731H14.9701C15.163 2.53737 15.3487 2.61064 15.4896 2.7423C15.6305 2.87397 15.7162 3.05421 15.7293 3.24662C15.7425 3.43904 15.6821 3.62926 15.5604 3.77887C15.4387 3.92848 15.2647 4.02631 15.0737 4.0526L14.9701 4.0597H14.3784L13.0925 15.2036C13.0353 15.6983 12.7982 16.1546 12.4263 16.4858C12.0545 16.8171 11.5739 17.0001 11.0759 17H4.65546C4.15749 17.0001 3.67686 16.8171 3.30502 16.4858C2.93318 16.1546 2.69607 15.6983 2.63881 15.2036L1.35188 4.0597H0.761194C0.577251 4.05969 0.399533 3.99308 0.260906 3.87218C0.122279 3.75127 0.0321206 3.58426 0.00710445 3.40203L0 3.29851C7.75697e-06 3.11456 0.0666224 2.93685 0.187525 2.79822C0.308427 2.65959 0.475438 2.56943 0.657672 2.54442L0.761194 2.53731H5.08579C5.1491 1.84382 5.46936 1.19905 5.9837 0.729589C6.49804 0.26013 7.1693 -9.80243e-05 7.86567 2.76988e-08V2.76988e-08ZM6.34328 6.34328C6.09463 6.34328 5.88657 6.5006 5.84394 6.70764L5.83582 6.78782V13.0042L5.84394 13.0834C5.88657 13.2904 6.09463 13.4478 6.34328 13.4478C6.59194 13.4478 6.8 13.2904 6.84263 13.0834L6.85075 13.0032V6.78884L6.84263 6.70764C6.8 6.50161 6.59194 6.34328 6.34328 6.34328ZM9.38806 6.34328C9.1394 6.34328 8.93134 6.5006 8.88872 6.70764L8.8806 6.78782V13.0042L8.88872 13.0834C8.93134 13.2904 9.1394 13.4478 9.38806 13.4478C9.63672 13.4478 9.84478 13.2904 9.8874 13.0834L9.89552 13.0032V6.78884L9.8874 6.70764C9.84478 6.50161 9.63672 6.3443 9.38806 6.3443V6.34328ZM7.86567 1.52239C7.25164 1.52239 6.7391 1.95881 6.62239 2.53731H9.10896C8.99122 1.95881 8.4797 1.52239 7.86567 1.52239V1.52239Z" fill="#454545"/>
</svg>
