<svg width="15" height="14" viewBox="0 0 15 14" fill="none" xmlns="http://www.w3.org/2000/svg">
<path d="M14.0625 6.00071H2.94375L6.34687 1.6411C6.506 1.4369 6.58255 1.17365 6.5597 0.909246C6.53684 0.644844 6.41644 0.400954 6.22499 0.231231C6.03354 0.0615081 5.78671 -0.0201464 5.53881 0.00423112C5.29091 0.0286086 5.06225 0.157021 4.90312 0.361219L0.215625 6.36067C0.184088 6.40839 0.155887 6.45852 0.13125 6.51066C0.13125 6.56066 0.13125 6.59065 0.0656251 6.64065C0.0231315 6.7553 0.0008823 6.87734 0 7.00061C0.0008823 7.12389 0.0231315 7.24593 0.0656251 7.36058C0.0656251 7.41058 0.0656248 7.44057 0.13125 7.49057C0.155887 7.54271 0.184088 7.59284 0.215625 7.64056L4.90312 13.64C4.99126 13.7529 5.10164 13.8437 5.22641 13.9059C5.35118 13.9681 5.48726 14.0002 5.62499 14C5.84404 14.0004 6.05632 13.9191 6.22499 13.77C6.31992 13.6861 6.39839 13.583 6.45591 13.4666C6.51343 13.3503 6.54886 13.223 6.56018 13.092C6.5715 12.9611 6.55849 12.829 6.52188 12.7034C6.48528 12.5778 6.42581 12.4612 6.34687 12.3601L2.94375 8.00052H14.0625C14.3111 8.00052 14.5496 7.89518 14.7254 7.70766C14.9012 7.52014 15 7.26581 15 7.00061C15 6.73542 14.9012 6.48109 14.7254 6.29357C14.5496 6.10605 14.3111 6.00071 14.0625 6.00071Z" fill="#454545"/>
</svg>
