<svg width="15" height="15" viewBox="0 0 15 15" fill="none" xmlns="http://www.w3.org/2000/svg">
<path d="M9.07493 0.437988C6.91169 1.05974 4.7482 1.68198 2.58496 2.30348C2.70202 2.4745 2.81081 2.65103 2.91096 2.83248C5.05145 2.17373 7.19219 1.51498 9.33293 0.856736C9.25393 0.713737 9.16793 0.574238 9.07493 0.437988ZM9.69967 1.65598L3.37496 3.84347C3.44821 4.03672 3.51496 4.23297 3.57646 4.43172C5.67044 3.66122 7.76518 2.89148 9.85892 2.12148C9.81042 1.96478 9.75732 1.80955 9.69967 1.65598V1.65598ZM3.86445 5.52521C3.9117 5.73046 3.9547 5.93771 3.9962 6.14571L10.1842 3.47997C10.1514 3.31592 10.1167 3.15224 10.0802 2.98897C8.00793 3.83447 5.93669 4.67997 3.86445 5.52521" fill="black"/>
<path d="M14.8069 7.78871C14.2429 7.17071 13.9222 6.43897 13.7022 5.65922C13.0204 6.04497 12.3752 6.40997 11.7654 6.75547C11.0979 4.38898 11.2802 1.62199 9.0302 0L0 2.06324C3.81798 4.81448 2.78599 11.9402 5.51022 14.6162C5.73797 14.8399 6.59122 15.2632 7.77721 14.7732C9.6152 14.0137 8.94145 13.1522 14.5734 9.04645C15.0702 8.68396 15.1124 8.12896 14.8069 7.78871ZM5.67522 10.2024C5.98372 11.2962 8.06296 11.8887 7.70396 13.5172C7.48596 14.5074 6.26147 14.7077 5.83872 14.2832C4.72622 13.1667 4.26598 11.1577 3.79098 9.01795C3.24123 6.54197 2.67524 3.99148 1.00874 2.31199L8.9212 0.504497C10.2924 1.59724 10.5872 3.22548 10.8984 4.94572C11.0212 5.62447 11.1519 6.31997 11.3494 6.99121L5.67522 10.2024Z" fill="#454545"/>
</svg>
