<svg width="17" height="17" viewBox="0 0 17 17" fill="none" xmlns="http://www.w3.org/2000/svg">
<path fill-rule="evenodd" clip-rule="evenodd" d="M17 8.5C17 8.24956 16.9185 8.00937 16.7736 7.83227C16.6287 7.65518 16.4322 7.55569 16.2273 7.55569H2.63921L7.50236 1.61408C7.64745 1.43676 7.72896 1.19627 7.72896 0.945508C7.72896 0.694745 7.64745 0.454252 7.50236 0.276935C7.35728 0.099619 7.1605 4.29927e-06 6.95532 4.29433e-06C6.75014 4.28939e-06 6.55336 0.099619 6.40827 0.276935L0.226956 7.83143C0.155001 7.91915 0.0979125 8.02335 0.0589603 8.13808C0.020008 8.2528 -4.23793e-05 8.37579 -4.23793e-05 8.5C-4.23793e-05 8.62421 0.020008 8.7472 0.0589603 8.86193C0.0979125 8.97665 0.155001 9.08086 0.226956 9.16858L6.40827 16.7231C6.55336 16.9004 6.75014 17 6.95532 17C7.1605 17 7.35728 16.9004 7.50236 16.7231C7.64745 16.5458 7.72896 16.3053 7.72896 16.0545C7.72896 15.8037 7.64745 15.5632 7.50236 15.3859L2.63921 9.44431H16.2273C16.4322 9.44431 16.6287 9.34482 16.7736 9.16773C16.9185 8.99064 17 8.75045 17 8.5Z" fill="white"/>
</svg>
