<svg width="17" height="17" viewBox="0 0 17 17" fill="none" xmlns="http://www.w3.org/2000/svg">
    <path d="M8.4999 1.41665C9.90083 1.41665 11.2703 1.83207 12.4351 2.61039C13.6 3.38871 14.5079 4.49496 15.044 5.78926C15.5801 7.08355 15.7204 8.50776 15.447 9.88177C15.1737 11.2558 14.4991 12.5179 13.5085 13.5085C12.5179 14.4991 11.2558 15.1737 9.88177 15.447C8.50776 15.7204 7.08355 15.5801 5.78926 15.044C4.49496 14.5079 3.38871 13.6 2.61039 12.4351C1.83207 11.2703 1.41665 9.90083 1.41665 8.4999C1.41665 8.31204 1.34202 8.13187 1.20919 7.99904C1.07635 7.8662 0.896184 7.79157 0.708325 7.79157C0.520465 7.79157 0.3403 7.8662 0.207464 7.99904C0.074627 8.13187 2.18392e-09 8.31204 2.18392e-09 8.4999C-4.40975e-05 10.4461 0.66779 12.3334 1.89192 13.8464C3.11605 15.3594 4.82232 16.4065 6.72565 16.8127C8.62898 17.219 10.6141 16.9598 12.3493 16.0784C14.0844 15.197 15.4646 13.7469 16.2592 11.9702C17.0537 10.1936 17.2145 8.19815 16.7147 6.31722C16.2149 4.43629 15.0848 2.78385 13.5131 1.63598C11.9415 0.488121 10.0235 -0.085633 8.07966 0.0105873C6.13584 0.106808 4.28391 0.867174 2.8333 2.16464V0.708325C2.8333 0.520465 2.75867 0.3403 2.62584 0.207464C2.493 0.074627 2.31283 0 2.12497 0C1.93712 0 1.75695 0.074627 1.62411 0.207464C1.49128 0.3403 1.41665 0.520465 1.41665 0.708325V4.95827C1.41665 5.14613 1.49128 5.3263 1.62411 5.45914C1.75695 5.59197 1.93712 5.6666 2.12497 5.6666H4.95827C5.14613 5.6666 5.3263 5.59197 5.45914 5.45914C5.59197 5.3263 5.6666 5.14613 5.6666 4.95827C5.6666 4.77041 5.59197 4.59025 5.45914 4.45741C5.3263 4.32458 5.14613 4.24995 4.95827 4.24995H2.8333C3.49247 3.36958 4.34789 2.65509 5.33157 2.16325C6.31526 1.67141 7.4001 1.41577 8.4999 1.41665ZM8.50132 4.95827C8.50132 4.77041 8.42669 4.59025 8.29385 4.45741C8.16101 4.32458 7.98085 4.24995 7.79299 4.24995C7.60513 4.24995 7.42497 4.32458 7.29213 4.45741C7.15929 4.59025 7.08466 4.77041 7.08466 4.95827V9.20822C7.08466 9.39608 7.15929 9.57625 7.29213 9.70908C7.42497 9.84192 7.60513 9.91655 7.79299 9.91655H10.6263C10.8141 9.91655 10.9943 9.84192 11.1272 9.70908C11.26 9.57625 11.3346 9.39608 11.3346 9.20822C11.3346 9.02036 11.26 8.8402 11.1272 8.70736C10.9943 8.57452 10.8141 8.4999 10.6263 8.4999H8.50132V4.95827Z" fill="#8D8D8D"/>
</svg>
